<svg width="206" height="206" viewBox="0 0 206 206" fill="none" xmlns="http://www.w3.org/2000/svg">
<path d="M53.7056 43.7398C53.7056 43.7398 80.7952 64.2725 121.979 25.8801C158.553 -8.21513 188.417 45.5796 188.626 71.3414C188.896 104.712 152.051 131.414 169.932 153.332C187.813 175.251 134.471 211.446 105.723 180.122C69.9607 141.155 60.2726 172.816 39.8883 172.816C25.2583 172.816 -4.77848 136.507 15.5051 109.495C32.5734 86.7652 23.2646 79.2214 18.7568 71.3414C12.254 59.9758 27.6967 29.1275 53.7056 43.7398Z" fill="#2A2C32"/>
<path d="M150.891 91.4016C152.078 91.843 153.375 91.8724 154.61 91.5884C159.782 90.4017 177.566 87.258 174.476 101.039C173.803 103.773 163.388 119.087 178.22 124.676C179.308 125.091 180.457 125.317 181.62 125.345C186.187 125.439 195.237 124.361 199.025 120.506C203.601 115.848 198.602 118.056 198.602 118.056C198.602 118.056 181.207 125.648 175.062 117.594C174.378 116.698 173.943 115.396 173.819 114.276C173.602 112.333 174.464 109.766 175.597 107.531C177.131 104.507 184.494 90.9013 168.508 86.938C164.826 86.061 159.477 85.2738 152.581 88.1769C148.558 89.8705 149.449 90.866 150.891 91.4016Z" fill="url(#paint0_linear_7897_7467)"/>
<path d="M154.45 86.3221L149.82 88.0554C148.222 88.6536 147.411 90.434 148.009 92.032L148.239 92.6456C148.837 94.2435 150.617 95.0543 152.215 94.4562L156.846 92.7236C158.444 92.1254 159.255 90.345 158.657 88.7463L158.427 88.1334C157.829 86.5347 156.049 85.724 154.45 86.3221Z" fill="#DADADA"/>
<path d="M126.027 91.3367L110.758 97.0517C109.958 97.3504 109.553 98.2406 109.853 99.0396L109.913 99.2007C110.212 99.9997 111.102 100.405 111.901 100.106L127.171 94.3913C127.97 94.0919 128.376 93.2017 128.076 92.4027L128.016 92.2416C127.717 91.4426 126.827 91.0372 126.027 91.3367Z" fill="white"/>
<path d="M130.289 102.723L115.019 108.438C114.22 108.737 113.815 109.627 114.114 110.426L114.174 110.587C114.473 111.386 115.363 111.792 116.162 111.492L131.432 105.778C132.231 105.479 132.637 104.588 132.338 103.789L132.278 103.628C131.979 102.829 131.088 102.424 130.289 102.723Z" fill="white"/>
<path d="M144.388 83.566L132.012 88.1973C130.413 88.7955 129.603 90.5766 130.201 92.1746L134.427 103.464C135.025 105.062 136.805 105.873 138.403 105.275L150.779 100.643C152.377 100.045 153.188 98.2648 152.59 96.6661L148.365 85.3766C147.767 83.7786 145.986 82.9679 144.388 83.566Z" fill="url(#paint1_linear_7897_7467)"/>
<path d="M133.29 86.5274L120.914 91.1595C119.316 91.7576 118.505 93.538 119.103 95.1367L124.144 108.605C124.742 110.203 126.523 111.014 128.121 110.416L140.497 105.785C142.095 105.187 142.906 103.406 142.308 101.807L137.266 88.3387C136.668 86.74 134.888 85.9293 133.29 86.5274Z" fill="url(#paint2_linear_7897_7467)"/>
<path d="M135.229 83.7943L135.131 83.8303C134.066 84.2291 133.525 85.4165 133.924 86.4819L140.986 105.351C141.385 106.416 142.572 106.957 143.637 106.558L143.734 106.521C144.8 106.122 145.34 104.936 144.942 103.87L137.88 85.0016C137.481 83.9363 136.294 83.3955 135.229 83.7943Z" fill="#DADADA"/>
<path d="M9.03455 95.8576C9.03455 95.8576 33.8893 88.8727 30.2808 104.966C29.6541 107.512 20.6335 120.622 31.3784 126.917C33.6856 128.269 36.3482 128.868 39.022 128.854C43.8159 128.829 51.4157 127.906 54.8299 124.431C59.4055 119.773 54.4068 121.982 54.4068 121.982C54.4068 121.982 40.1323 127.854 32.7886 123.173C30.2811 121.575 29.1445 118.481 29.8254 115.586C30.1735 114.148 30.7034 112.761 31.4025 111.457C32.9996 108.465 40.2989 94.8268 24.3133 90.8635C20.6308 89.9866 15.2823 89.1993 8.38595 92.1025C1.48959 95.0063 9.03455 95.8576 9.03455 95.8576Z" fill="url(#paint3_linear_7897_7467)"/>
<path d="M58.1729 118.381L53.5429 120.114C51.9446 120.712 51.1338 122.493 51.7321 124.092L51.9616 124.704C52.5597 126.303 54.3403 127.114 55.9386 126.515L60.5686 124.782C62.167 124.184 62.9777 122.404 62.3795 120.805L62.15 120.192C61.5518 118.594 59.7712 117.783 58.1729 118.381Z" fill="#DADADA"/>
<path d="M65.9947 110.763L59.1328 113.332C57.5344 113.93 56.7237 115.71 57.3219 117.309L60.6307 126.149C61.2289 127.748 63.0095 128.559 64.6077 127.961L71.4697 125.392C73.068 124.794 73.8786 123.014 73.2806 121.415L69.9718 112.575C69.3736 110.976 67.593 110.165 65.9947 110.763Z" fill="url(#paint4_linear_7897_7467)"/>
<path d="M77.4203 103.956L67.1874 107.786C65.5891 108.385 64.7784 110.165 65.3766 111.764L70.4175 125.232C71.0157 126.831 72.7963 127.642 74.3943 127.044L84.6274 123.214C86.2261 122.616 87.0368 120.835 86.4387 119.236L81.3976 105.768C80.7994 104.169 79.019 103.358 77.4203 103.956Z" fill="url(#paint5_linear_7897_7467)"/>
<path d="M79.5881 101.167L79.4909 101.203C78.4249 101.602 77.8849 102.79 78.2836 103.855L85.345 122.724C85.7438 123.789 86.9312 124.33 87.9965 123.931L88.0937 123.894C89.159 123.496 89.6997 122.309 89.301 121.243L82.2388 102.375C81.8401 101.309 80.6534 100.769 79.5881 101.167Z" fill="white"/>
<path d="M105.719 89.1464C105.35 89.1052 105.012 88.9235 104.775 88.638C104.539 88.3525 104.422 87.9869 104.449 87.6168L105.213 73.6706C105.258 72.8376 105.962 72.2046 106.76 72.2783L107.872 72.3813C108.671 72.4549 109.242 73.2053 109.131 74.0326L107.254 87.8758C107.212 88.2444 107.028 88.5821 106.742 88.819C106.455 89.0559 106.089 89.1729 105.719 89.1464Z" fill="#BEBEBE"/>
<path d="M99.1255 90.3488C99.0108 90.3826 98.8908 90.3936 98.7717 90.3811C98.6532 90.3679 98.5377 90.3318 98.4332 90.2745C98.328 90.2178 98.2361 90.1406 98.161 90.0471C98.086 89.9544 98.0301 89.847 97.9962 89.733L95.2697 81.0574C95.1902 80.811 95.2123 80.5424 95.33 80.3122C95.4484 80.0811 95.653 79.9068 95.9002 79.8273L96.6057 79.614C96.7271 79.5786 96.8544 79.5691 96.9794 79.5853C97.1045 79.6015 97.2245 79.6434 97.3326 79.7089C97.4408 79.7736 97.5342 79.8604 97.607 79.9634C97.6799 80.0664 97.7306 80.1834 97.7556 80.307L99.7766 89.1959C99.8333 89.4343 99.7972 89.6859 99.6766 89.9C99.5559 90.1133 99.3595 90.2737 99.1255 90.3488Z" fill="#BEBEBE"/>
<path d="M95.4472 95.3515C94.9587 95.957 93.9757 95.9497 93.2194 95.3353L79.7919 84.4254C78.9893 83.7736 78.7531 82.695 79.271 82.0535L79.9935 81.1589C80.5122 80.5166 81.576 80.5695 82.3353 81.2744L95.0411 93.0796C95.7569 93.744 95.9357 94.7468 95.4472 95.3515Z" fill="#BEBEBE"/>
<path d="M101.655 123.531C102 123.665 102.281 123.927 102.437 124.264C102.593 124.6 102.612 124.984 102.492 125.334L98.1915 138.623C97.9348 139.416 97.0931 139.848 96.3397 139.573L95.2899 139.19C94.5372 138.915 94.176 138.043 94.4953 137.273L99.8447 124.367C99.9808 124.022 100.244 123.742 100.582 123.586C100.919 123.43 101.303 123.41 101.655 123.531Z" fill="#BEBEBE"/>
<path d="M108.335 124.052C108.455 124.049 108.574 124.069 108.686 124.112C108.797 124.155 108.899 124.219 108.986 124.301C109.073 124.383 109.143 124.481 109.191 124.59C109.24 124.699 109.267 124.817 109.27 124.937L109.691 134.021C109.704 134.28 109.615 134.533 109.441 134.725C109.268 134.919 109.026 135.035 108.767 135.049L108.03 135.075C107.904 135.078 107.779 135.055 107.662 135.007C107.545 134.959 107.439 134.888 107.351 134.798C107.264 134.707 107.195 134.6 107.151 134.481C107.108 134.363 107.088 134.237 107.095 134.111L107.411 125.001C107.418 124.756 107.517 124.522 107.688 124.346C107.859 124.17 108.09 124.066 108.335 124.052Z" fill="#BEBEBE"/>
<path d="M113.168 120.155C113.795 119.694 114.743 119.952 115.317 120.74L125.514 134.717C126.122 135.552 126.076 136.655 125.411 137.143L124.484 137.824C123.819 138.312 122.803 137.989 122.249 137.114L112.979 122.455C112.458 121.631 112.541 120.615 113.168 120.155Z" fill="#BEBEBE"/>
<defs>
<linearGradient id="paint0_linear_7897_7467" x1="175.315" y1="86.1348" x2="175.315" y2="125.351" gradientUnits="userSpaceOnUse">
<stop stop-color="#BCBCBC"/>
<stop offset="1" stop-color="#DADADA"/>
</linearGradient>
<linearGradient id="paint1_linear_7897_7467" x1="141.395" y1="83.3691" x2="141.395" y2="105.472" gradientUnits="userSpaceOnUse">
<stop stop-color="#BCBCBC"/>
<stop offset="1" stop-color="#DADADA"/>
</linearGradient>
<linearGradient id="paint2_linear_7897_7467" x1="130.705" y1="86.3306" x2="130.705" y2="110.613" gradientUnits="userSpaceOnUse">
<stop stop-color="#BCBCBC"/>
<stop offset="1" stop-color="#DADADA"/>
</linearGradient>
<linearGradient id="paint3_linear_7897_7467" x1="31.1199" y1="90.0603" x2="31.1199" y2="128.854" gradientUnits="userSpaceOnUse">
<stop stop-color="#BCBCBC"/>
<stop offset="1" stop-color="#DADADA"/>
</linearGradient>
<linearGradient id="paint4_linear_7897_7467" x1="65.3012" y1="110.566" x2="65.3012" y2="128.157" gradientUnits="userSpaceOnUse">
<stop stop-color="#BCBCBC"/>
<stop offset="1" stop-color="#DADADA"/>
</linearGradient>
<linearGradient id="paint5_linear_7897_7467" x1="75.9076" y1="103.76" x2="75.9076" y2="127.241" gradientUnits="userSpaceOnUse">
<stop stop-color="#BCBCBC"/>
<stop offset="1" stop-color="#DADADA"/>
</linearGradient>
</defs>
</svg>
