<svg width="160" height="151" viewBox="0 0 160 151" fill="none" xmlns="http://www.w3.org/2000/svg">
<mask id="mask0_6497_6060" style="mask-type:luminance" maskUnits="userSpaceOnUse" x="0" y="0" width="160" height="151">
<rect x="0.0742188" width="159.851" height="150.716" fill="white"/>
</mask>
<g mask="url(#mask0_6497_6060)">
<path fill-rule="evenodd" clip-rule="evenodd" d="M159.892 75.3411C159.892 116.951 126.294 150.682 84.8485 150.682C43.4029 150.682 9.80469 116.951 9.80469 75.3411C9.80469 33.7314 43.4029 0 84.8485 0C126.294 0 159.892 33.7314 159.892 75.3411C159.892 116.951 159.892 75.3411 159.892 75.3411Z" fill="#36363B"/>
</g>
<path fill-rule="evenodd" clip-rule="evenodd" d="M12.2526 57.0896C12.2526 59.1916 10.5486 60.8956 8.4466 60.8956C6.34462 60.8956 4.64062 59.1916 4.64062 57.0896C4.64062 54.9876 6.34462 53.2836 8.4466 53.2836C10.5486 53.2836 12.2526 54.9876 12.2526 57.0896C12.2526 59.1916 12.2526 57.0896 12.2526 57.0896Z" fill="url(#paint0_linear_6497_6060)"/>
<path opacity="0.5" d="M50.4219 104.244C50.4219 104.244 70.3151 113.599 78.207 117.189C84.4581 120.032 116.646 129.128 120.481 126.543C124.316 123.957 132.782 116.861 129.987 111.999C127.192 107.137 112.492 98.4069 105.462 97.1314C98.4317 95.8559 78.3298 101.654 78.3298 101.654L61.1834 104.599L50.4219 104.244Z" fill="url(#paint1_linear_6497_6060)"/>
<path d="M65.1662 62.4206L42.9982 78.7206L48.909 64.8531L71.1094 50.759L65.1662 62.4206Z" fill="#E7E7E7"/>
<path d="M48.5391 65.1394L71.1082 51.0107V89.5434L50.4198 104.048L48.5391 65.1394Z" fill="#DFDFDF"/>
<path d="M71.1094 51.0107L105.715 59.1068V97.6536L71.1094 89.5575V51.0107Z" fill="#BDBDBD"/>
<path d="M48.5391 65.1375L83.8974 73.4007V111.947L50.4198 104.26L48.5391 65.1375Z" fill="#C7C7C7"/>
<path d="M83.1484 73.4147L105.718 59.2861V97.8188L83.1484 111.947V73.4147Z" fill="#A9A9A9"/>
<mask id="mask1_6497_6060" style="mask-type:luminance" maskUnits="userSpaceOnUse" x="83" y="59" width="23" height="53">
<path d="M83.1484 73.4147L105.718 59.2861V97.8188L83.1484 111.947V73.4147Z" fill="white"/>
</mask>
<g mask="url(#mask1_6497_6060)">
<rect x="91.5312" y="56.0751" width="7.09317" height="59.0835" fill="#868686"/>
</g>
<path d="M93.2972 84.8644L115.498 70.7703L105.349 59.286L83.1484 73.3801L93.2972 84.8644Z" fill="#D2D2D2"/>
<path fill-rule="evenodd" clip-rule="evenodd" d="M100.453 23.0139C99.6604 23.2562 83.2488 33.0755 83.2488 33.0755L88.0381 33.4326L91.4414 37.1939C91.4414 37.1939 101.246 22.7716 100.453 23.0139Z" fill="#BEBEBE"/>
<mask id="mask2_6497_6060" style="mask-type:luminance" maskUnits="userSpaceOnUse" x="83" y="23" width="18" height="15">
<path fill-rule="evenodd" clip-rule="evenodd" d="M100.453 23.0139C99.6604 23.2562 83.2488 33.0755 83.2488 33.0755L88.0381 33.4326L91.4414 37.1939C91.4414 37.1939 101.246 22.7716 100.453 23.0139Z" fill="white"/>
</mask>
<g mask="url(#mask2_6497_6060)">
<path fill-rule="evenodd" clip-rule="evenodd" d="M88.0393 33.4326L100.454 23.0139L91.4426 37.1939L88.0393 33.4326Z" fill="#898989"/>
</g>
<path fill-rule="evenodd" clip-rule="evenodd" d="M97.9899 34.3921L92.2348 33.7906L100.461 23.1152L97.9899 34.3921Z" fill="#BEBEBE"/>
<path fill-rule="evenodd" clip-rule="evenodd" d="M87.3913 41.5045C87.7509 40.7436 88.1129 39.9559 88.4774 39.1416L89.0725 39.408C88.7062 40.2263 88.3423 41.018 87.9808 41.783L87.3913 41.5045ZM85.0482 46.1468C85.4455 45.4136 85.8461 44.6457 86.25 43.8431L86.8324 44.1362C86.4256 44.9446 86.022 45.7184 85.6214 46.4574L85.0482 46.1468ZM83.7703 48.4052C83.3069 49.1862 82.8483 49.9181 82.3944 50.6009L82.9373 50.9619C83.3976 50.2696 83.8621 49.5282 84.331 48.7379L83.7703 48.4052ZM79.2133 54.6629C79.7632 54.0925 80.3213 53.4415 80.8875 52.71L81.4031 53.1091C80.823 53.8586 80.2496 54.5273 79.6827 55.1154L79.2133 54.6629ZM77.2982 56.3476C76.5361 56.8938 75.7939 57.2715 75.0721 57.4827L75.2552 58.1084C76.0515 57.8755 76.8589 57.4645 77.678 56.8776L77.2982 56.3476ZM70.4742 56.4164C71.1912 56.9945 71.9202 57.3732 72.662 57.5558L72.5061 58.1889C71.6672 57.9824 70.8532 57.5595 70.065 56.9239L70.4742 56.4164ZM68.717 54.5645C68.6766 54.5116 68.6362 54.458 68.5959 54.4038C68.0711 53.6973 67.6899 53.0269 67.4468 52.3936L66.8381 52.6273C67.1037 53.3191 67.5141 54.0408 68.0726 54.7926C68.1146 54.8492 68.1567 54.9051 68.1989 54.9603L68.717 54.5645ZM68.5608 48.0058C67.8565 48.5875 67.4035 49.2552 67.2188 50.0001L66.5859 49.8432C66.8064 48.9543 67.3389 48.1693 68.1455 47.5031L68.5608 48.0058ZM70.7376 46.7806C71.4713 46.4941 72.2962 46.2605 73.1907 46.0842L73.0646 45.4445C72.1337 45.628 71.2717 45.8721 70.5005 46.1733L70.7376 46.7806ZM78.2952 45.7111C77.4277 45.6803 76.5633 45.6946 75.7215 45.7539L75.6757 45.1035C76.5407 45.0426 77.4281 45.0279 78.3184 45.0596L78.2952 45.7111ZM80.8917 45.9397C81.7656 46.0641 82.6111 46.2346 83.4097 46.4482L83.5782 45.8183C82.7539 45.5978 81.8828 45.4222 80.9836 45.2942L80.8917 45.9397ZM87.996 48.5969C87.3998 48.1117 86.6724 47.6762 85.8326 47.2977L86.1005 46.7033C86.9894 47.1039 87.7649 47.5682 88.4075 48.0912L87.996 48.5969ZM89.5511 50.5553C89.7083 50.9207 89.809 51.3015 89.8514 51.6974C89.8963 52.1164 89.9118 52.5374 89.898 52.9607L90.5497 52.982C90.5645 52.5284 90.5478 52.0771 90.4997 51.628C90.4503 51.1667 90.3329 50.7225 90.1499 50.2975L89.5511 50.5553ZM88.5068 57.8187C88.9264 57.0271 89.2512 56.2439 89.4816 55.469L90.1065 55.6548C89.8636 56.4722 89.5222 57.2952 89.0829 58.124L88.5068 57.8187ZM87.1248 59.9985C86.6424 60.6554 86.0971 61.3176 85.4888 61.9849L85.9707 62.4242C86.5941 61.7402 87.154 61.0604 87.6503 60.3844L87.1248 59.9985ZM81.7449 65.5127C82.4369 64.9398 83.085 64.3703 83.689 63.8042L84.1349 64.28C83.5209 64.8553 82.8628 65.4336 82.1607 66.0149L81.7449 65.5127ZM79.6901 67.1272C79.0199 67.6287 78.3168 68.1327 77.5808 68.6391L77.9504 69.1762C78.6934 68.665 79.4035 68.156 80.0807 67.6493L79.6901 67.1272ZM74.0355 70.9404C74.4987 70.6553 74.9518 70.3709 75.3948 70.0873L75.7463 70.6364C75.3001 70.9221 74.8438 71.2085 74.3773 71.4956L74.0355 70.9404Z" fill="#9A9A9A"/>
<defs>
<linearGradient id="paint0_linear_6497_6060" x1="4.64062" y1="53.2836" x2="4.64062" y2="60.8956" gradientUnits="userSpaceOnUse">
<stop stop-color="#D9E0FF"/>
<stop offset="1" stop-color="#D9E0FF" stop-opacity="0.01"/>
</linearGradient>
<linearGradient id="paint1_linear_6497_6060" x1="47.4987" y1="107.488" x2="76.3682" y2="149.971" gradientUnits="userSpaceOnUse">
<stop stop-color="#F3F6F8" stop-opacity="0.33"/>
<stop offset="1" stop-color="#C6CFD3" stop-opacity="0.01"/>
</linearGradient>
</defs>
</svg>
