<svg width="160" height="153" viewBox="0 0 160 153" fill="none" xmlns="http://www.w3.org/2000/svg">
<mask id="mask0_5161_13989" style="mask-type:luminance" maskUnits="userSpaceOnUse" x="0" y="0" width="160" height="151">
<rect x="0.0742188" width="159.851" height="150.716" fill="white"/>
</mask>
<g mask="url(#mask0_5161_13989)">
<path fill-rule="evenodd" clip-rule="evenodd" d="M159.892 75.3411C159.892 116.951 126.294 150.682 84.8485 150.682C43.4029 150.682 9.80469 116.951 9.80469 75.3411C9.80469 33.7314 43.4029 0 84.8485 0C126.294 0 159.892 33.7314 159.892 75.3411C159.892 116.951 159.892 75.3411 159.892 75.3411Z" fill="#36363B"/>
<path d="M29.2601 34.4259C29.1581 34.1185 29.3282 33.777 29.6343 33.7087L36.0297 32.3767C36.3699 32.3084 36.6761 32.5817 36.6761 32.9232L35.6555 48.2578C35.6215 48.8384 34.8391 48.9409 34.635 48.4286L29.2601 34.4259Z" fill="#D9E0FF"/>
<path d="M41.4743 28.5515C41.5083 28.21 41.8145 28.0051 42.1547 28.1075L48.448 29.8493C48.7882 29.9518 48.9242 30.3275 48.7542 30.6348L40.828 43.8178C40.5558 44.296 39.8074 44.0569 39.8754 43.4763L41.4743 28.5515Z" fill="#D9E0FF"/>
<path d="M49.1942 38.3876C49.3643 38.1144 49.7385 38.0461 49.9766 38.251L52.9362 40.71C53.2083 40.9491 53.1743 41.3589 52.9022 41.5638L45.4863 46.755C45.01 47.0966 44.4317 46.5501 44.7379 46.0378L49.1942 38.3876Z" fill="#D9E0FF"/>
<path d="M119.758 43.6636C119.758 43.6295 119.758 43.6295 119.758 43.5953C119.758 43.527 119.758 43.4587 119.758 43.3563C119.622 37.9943 115.234 35.2962 115.234 35.2962L114.111 36.5257L81.4539 26.0066C77.6098 24.7771 73.4936 26.8946 72.269 30.7539L46.8235 110.398L44 113.472C44.1021 117.775 47.5039 120.678 47.5379 120.712C48.3543 121.566 49.3748 122.249 50.5995 122.625L83.8011 133.315C87.6451 134.544 91.7613 132.427 92.986 128.568L119.384 45.9177C119.622 45.4054 119.724 44.8248 119.758 44.2101C119.758 44.0393 119.758 43.8686 119.758 43.6636Z" fill="#8B8B8B"/>
<path d="M49.3148 119.968C45.4708 118.738 43.3617 114.606 44.5863 110.746L70.9843 28.0967C72.209 24.2374 76.3251 22.1199 80.1692 23.3494L113.371 34.0392C117.215 35.2687 119.324 39.4012 118.099 43.2605L91.7013 125.91C90.4766 129.77 86.3605 131.887 82.5164 130.658L49.3148 119.968Z" fill="url(#paint0_linear_5161_13989)"/>
<path d="M107.921 35.1262L107.479 36.4581C107.071 37.6876 105.778 38.3707 104.519 37.995L84.8568 31.6767C83.6321 31.2669 82.9517 29.9691 83.3259 28.7054L83.7682 27.3735L79.4479 25.9732C76.6584 25.0852 73.6648 26.6221 72.7463 29.4226L46.5865 111.287C45.702 114.087 47.2328 117.093 50.0223 118.015L82.7817 128.568C85.5711 129.456 88.5647 127.919 89.4832 125.119L115.643 43.2545C116.596 40.454 115.031 37.4485 112.241 36.5264L107.921 35.1262Z" fill="white"/>
<path d="M102.918 83.2471L52.1974 93.9028L49.3398 102.817L99.4824 93.9711L102.918 83.2471Z" fill="#EAEAEA"/>
<path d="M57.5391 77.1676L107.512 68.8002L114.893 45.7129L65.6013 51.9629L57.5391 77.1676Z" fill="#EAEAEA"/>
<path d="M92.3393 31.9837C92.1012 31.9154 91.9651 31.6422 92.0331 31.4031C92.1012 31.164 92.3733 31.0274 92.6114 31.0957L98.4285 32.9741C98.6667 33.0424 98.8027 33.3156 98.7347 33.5547C98.6667 33.7938 98.3945 33.9304 98.1564 33.8621L92.3393 31.9837Z" fill="white"/>
<path fill-rule="evenodd" clip-rule="evenodd" d="M101.933 34.3403C101.933 34.7364 101.613 35.0575 101.218 35.0575C100.824 35.0575 100.504 34.7364 100.504 34.3403C100.504 33.9442 100.824 33.623 101.218 33.623C101.613 33.623 101.933 33.9442 101.933 34.3403C101.933 34.7364 101.933 34.3403 101.933 34.3403Z" fill="white"/>
<mask id="mask1_5161_13989" style="mask-type:luminance" maskUnits="userSpaceOnUse" x="42" y="50" width="76" height="58">
<rect x="42" y="50" width="75.3582" height="57.8507" fill="white"/>
</mask>
<g mask="url(#mask1_5161_13989)">
<path fill-rule="evenodd" clip-rule="evenodd" d="M66.371 74.3138L64.2641 72.9709L62.719 73.0769L60.893 55.4425L58.7861 54.0996L58.9616 55.6545L54.7829 56.0786L44.1077 77.7064L44.4589 79.6501L42.668 80.1448L44.7749 81.4877L56.7845 80.2508L55.8715 85.4811L57.9784 86.824L64.0534 86.1879L63.3511 79.544L66.8627 79.226L66.371 74.3138ZM55.6959 64.4187L56.8196 75.268L50.0423 75.9748L55.3798 65.1609L55.6959 64.4187Z" fill="white"/>
<path fill-rule="evenodd" clip-rule="evenodd" d="M64.2633 72.9434L64.7549 77.8556L61.2785 78.209L61.9808 84.8528L55.9058 85.4889L55.2035 78.8451L42.6672 80.1526L42 76.336L52.6752 54.7435L58.8204 54.1074L60.7869 73.2968L64.2633 72.9434ZM54.7119 73.9329L53.5882 63.0483L53.2721 63.7904L47.9345 74.6397L54.7119 73.9329Z" fill="#8B8B8B"/>
<path fill-rule="evenodd" clip-rule="evenodd" d="M117.323 79.5443L115.742 77.4239L115.04 78.5194L111.704 77.0352L91.7935 90.4288L90.9858 92.6552L88.8789 91.9484L90.4591 94.0688L101.977 99.193L97.6929 103.186L99.2731 105.307L104.857 107.781L107.56 101.667L110.756 103.08L112.758 98.5569L111.177 96.4365L109.843 96.5426L117.323 79.5443ZM108.368 84.7038L103.979 94.7049L97.7632 91.9484L107.736 85.1986L108.368 84.7038Z" fill="white"/>
<path fill-rule="evenodd" clip-rule="evenodd" d="M111.177 96.4788L109.176 101.002L105.98 99.5887L103.276 105.702L97.6929 103.229L100.397 97.1149L88.8789 91.9907L90.1782 88.3507L110.089 74.957L115.742 77.4661L107.982 95.0652L111.177 96.4788ZM102.398 92.5561L106.788 82.555L106.156 83.0498L96.183 89.7996L102.398 92.5561Z" fill="#8B8B8B"/>
<path fill-rule="evenodd" clip-rule="evenodd" d="M93.7594 58.5881L92.3197 55.3368L92.0388 56.0083C90.7746 54.7007 89.0188 53.7819 86.8416 53.2872C83.5759 52.545 80.8369 53.0398 78.5895 54.8421C76.3421 56.6091 74.7618 59.6129 73.8137 63.8183L72.5496 69.2959C72.0228 71.7697 71.8824 73.9961 72.1282 75.9044L71.4961 75.551L72.971 78.9083C73.0061 79.0143 73.0763 79.1203 73.1114 79.2263C74.3405 81.8061 76.5879 83.4671 79.8536 84.2092C83.1545 84.9867 85.9286 84.4566 88.1409 82.6189C90.3532 80.8166 91.9334 77.8128 92.8815 73.6427L94.1457 68.0944C94.9885 64.3484 94.8831 61.2032 93.8297 58.7294C93.7945 58.6941 93.7945 58.6234 93.7594 58.5881ZM83.927 78.3428L79.8185 78.979C78.9757 78.5195 78.4139 77.8128 78.133 76.8586C77.7467 75.5157 77.8169 73.6074 78.3788 71.1336L80.0643 63.783C80.6262 61.4859 81.3636 59.8603 82.2766 58.9415C83.1896 58.0226 84.3484 57.7046 85.7531 58.0226C87.1928 58.3407 88.1409 59.1535 88.5272 60.4611C88.9135 61.5919 88.9135 63.1469 88.5623 65.0905L83.927 78.3428Z" fill="white"/>
<path fill-rule="evenodd" clip-rule="evenodd" d="M86.8784 79.7634C84.6661 81.5657 81.8919 82.0958 78.5911 81.3536C75.3253 80.6115 73.0779 78.9506 71.8489 76.3708C70.6198 73.791 70.4442 70.5044 71.3221 66.4404L72.5512 60.8567C73.4993 56.6513 75.1146 53.6475 77.3269 51.8805C79.5743 50.1135 82.3133 49.5834 85.5791 50.3256C88.8448 51.0677 91.0922 52.7286 92.3213 55.3084C93.5503 57.8529 93.7259 61.1748 92.848 65.2388L91.619 70.7871C90.6709 74.9572 89.0906 77.961 86.8784 79.7634ZM87.2646 57.6408C86.8432 56.3333 85.9302 55.5205 84.4905 55.2024C83.0859 54.8844 81.9271 55.1671 81.014 56.1212C80.101 57.0401 79.3636 58.6657 78.8018 60.9628L77.1162 68.278C76.5544 70.7518 76.4841 72.6601 76.8704 74.003C77.2567 75.3459 78.2048 76.1941 79.6445 76.5475C81.0843 76.9009 82.2782 76.5475 83.1912 75.558C84.1042 74.5685 84.8417 72.8722 85.4035 70.5398L87.0539 63.3305C87.6158 60.8214 87.686 58.9131 87.2646 57.6408Z" fill="#8B8B8B"/>
</g>
</g>
<path fill-rule="evenodd" clip-rule="evenodd" d="M96.746 147.291C96.746 150.444 94.1901 153 91.0371 153C87.8841 153 85.3281 150.444 85.3281 147.291C85.3281 144.138 87.8841 141.582 91.0371 141.582C94.1901 141.582 96.746 144.138 96.746 147.291C96.746 150.444 96.746 147.291 96.746 147.291Z" fill="url(#paint1_linear_5161_13989)"/>
<path fill-rule="evenodd" clip-rule="evenodd" d="M12.2526 57.0892C12.2526 59.1912 10.5486 60.8951 8.4466 60.8951C6.34462 60.8951 4.64062 59.1912 4.64062 57.0892C4.64062 54.9872 6.34462 53.2832 8.4466 53.2832C10.5486 53.2832 12.2526 54.9872 12.2526 57.0892C12.2526 59.1912 12.2526 57.0892 12.2526 57.0892Z" fill="url(#paint2_linear_5161_13989)"/>
<path fill-rule="evenodd" clip-rule="evenodd" d="M35.0882 127.119C35.0882 130.903 32.021 133.97 28.2375 133.97C24.4539 133.97 21.3867 130.903 21.3867 127.119C21.3867 123.336 24.4539 120.269 28.2375 120.269C32.021 120.269 35.0882 123.336 35.0882 127.119C35.0882 130.903 35.0882 127.119 35.0882 127.119Z" fill="url(#paint3_linear_5161_13989)"/>
<path fill-rule="evenodd" clip-rule="evenodd" d="M68.583 14.0825C68.583 16.8151 66.3678 19.0303 63.6353 19.0303C60.9027 19.0303 58.6875 16.8151 58.6875 14.0825C58.6875 11.35 60.9027 9.13477 63.6353 9.13477C66.3678 9.13477 68.583 11.35 68.583 14.0825C68.583 16.8151 68.583 14.0825 68.583 14.0825Z" fill="url(#paint4_linear_5161_13989)"/>
<path fill-rule="evenodd" clip-rule="evenodd" d="M143.942 104.283C143.942 107.226 141.556 109.612 138.614 109.612C135.671 109.612 133.285 107.226 133.285 104.283C133.285 101.341 135.671 98.9551 138.614 98.9551C141.556 98.9551 143.942 101.341 143.942 104.283C143.942 107.226 143.942 104.283 143.942 104.283Z" fill="url(#paint5_linear_5161_13989)"/>
<defs>
<linearGradient id="paint0_linear_5161_13989" x1="44.2383" y1="23" x2="44.2383" y2="131.007" gradientUnits="userSpaceOnUse">
<stop stop-color="#BCBCBC"/>
<stop offset="1" stop-color="#505054"/>
</linearGradient>
<linearGradient id="paint1_linear_5161_13989" x1="85.3281" y1="141.582" x2="85.3281" y2="153" gradientUnits="userSpaceOnUse">
<stop stop-color="#D9E0FF"/>
<stop offset="1" stop-color="#D9E0FF" stop-opacity="0.01"/>
</linearGradient>
<linearGradient id="paint2_linear_5161_13989" x1="4.64062" y1="53.2832" x2="4.64062" y2="60.8951" gradientUnits="userSpaceOnUse">
<stop stop-color="#D9E0FF"/>
<stop offset="1" stop-color="#D9E0FF" stop-opacity="0.01"/>
</linearGradient>
<linearGradient id="paint3_linear_5161_13989" x1="21.3867" y1="120.269" x2="21.3867" y2="133.97" gradientUnits="userSpaceOnUse">
<stop stop-color="#D9E0FF"/>
<stop offset="1" stop-color="#D9E0FF" stop-opacity="0.01"/>
</linearGradient>
<linearGradient id="paint4_linear_5161_13989" x1="58.6875" y1="9.13477" x2="58.6875" y2="19.0303" gradientUnits="userSpaceOnUse">
<stop stop-color="#D9E0FF"/>
<stop offset="1" stop-color="#D9E0FF" stop-opacity="0.01"/>
</linearGradient>
<linearGradient id="paint5_linear_5161_13989" x1="133.285" y1="98.9551" x2="133.285" y2="109.612" gradientUnits="userSpaceOnUse">
<stop stop-color="#D9E0FF"/>
<stop offset="1" stop-color="#D9E0FF" stop-opacity="0.01"/>
</linearGradient>
</defs>
</svg>
