<svg width="26" height="26" viewBox="0 0 26 26" fill="none" xmlns="http://www.w3.org/2000/svg">
<g clip-path="url(#clip0_1212_1316)">
<path d="M23.2495 22.7974C22.9104 24.1949 18.975 25.3971 14.4642 25.4895C9.95337 25.582 6.5831 24.5237 6.92218 23.1365C7.26126 21.7391 11.1967 20.5369 15.7075 20.4444C20.2081 20.3417 23.5886 21.4 23.2495 22.7974Z" fill="#E0BFAD"/>
<path d="M25.5512 13.56C25.8903 11.1248 25.4895 8.58679 24.2565 6.43927C23.8558 5.74055 23.3831 5.09321 22.8282 4.5178C22.2014 3.86019 21.4925 3.28477 20.8143 2.67854C22.6844 4.33285 23.8558 6.66532 24.1846 9.13138C24.5237 11.6077 24.0304 14.2176 22.8796 16.4371C21.7391 18.6462 20.0539 20.5266 17.9475 21.8521C15.8616 23.1673 13.4264 23.8969 10.9501 23.8352C8.6998 23.7633 6.49062 23.0132 4.72328 21.6055C4.58971 21.5028 4.45613 21.3897 4.33282 21.2767C5.22677 22.0679 6.08989 22.9105 7.10714 23.5373C8.04218 24.1127 9.07998 24.5237 10.1486 24.7806C12.5222 25.3354 15.0396 25.058 17.2796 24.1332C19.5196 23.2084 21.4925 21.6672 22.9515 19.7354C24.3387 17.927 25.2429 15.7897 25.5512 13.56Z" fill="url(#paint0_linear_1212_1316)"/>
<path opacity="0.5" d="M17.3104 24.1229C18.0914 23.8044 18.8415 23.4037 19.5504 22.931L18.6976 22.0268C18.5949 22.0987 18.4921 22.1604 18.3893 22.2323C16.2624 23.5784 13.7758 24.3182 11.2481 24.2462C9.46017 24.1949 7.69283 23.7119 6.15155 22.818C6.47008 23.0646 6.79889 23.3112 7.14825 23.5167C8.08329 24.0921 9.12109 24.5031 10.1897 24.76C12.553 25.3149 15.0602 25.0477 17.3104 24.1229Z" fill="url(#paint1_linear_1212_1316)" fill-opacity="0.5"/>
<path d="M15.0396 0.171378C21.3589 0.839267 25.3868 6.65505 24.0407 13.1798C22.6844 19.6943 16.4679 24.4415 10.1383 23.7736C3.81906 23.1057 -0.20883 17.2899 1.1475 10.7651C2.49355 4.25064 8.72034 -0.496512 15.0396 0.171378Z" fill="url(#paint2_linear_1212_1316)"/>
<path opacity="0.2" d="M14.9574 0.44881C8.85395 -0.198529 2.85321 4.38422 1.53798 10.6727C1.43523 11.1556 1.36331 11.6385 1.3222 12.1112C3.88074 13.9607 6.97358 15.1732 10.4466 15.5328C15.0807 16.0158 19.684 14.9163 23.7017 12.6455C24.8114 6.50092 20.9479 1.0756 14.9574 0.44881Z" fill="url(#paint3_linear_1212_1316)"/>
<path opacity="0.5" d="M11.1042 23.2187C5.46312 22.6228 1.3633 17.7112 2.62716 11.618C3.89101 5.52477 9.71706 1.08587 15.6253 1.70239C20.5883 2.22642 23.4961 6.40844 23.7119 11.0323C23.9585 5.53505 20.2492 0.931746 14.7519 0.356333C8.63816 -0.291006 2.60661 4.30202 1.30165 10.611C-0.0135778 16.92 3.89101 22.5611 10.015 23.2084C10.5699 23.2701 11.1248 23.2804 11.6796 23.2598C11.4844 23.2495 11.2892 23.2393 11.1042 23.2187Z" fill="#94512A"/>
<path d="M14.1251 1.44551C14.4847 1.44551 14.8444 1.46606 15.1937 1.49688C17.8345 1.77432 20.1156 3.06899 21.626 5.13432C22.4069 6.21321 22.9515 7.43597 23.229 8.78202C23.5167 10.1897 23.5064 11.6488 23.1981 13.1387C22.6433 15.8206 21.1431 18.2969 18.975 20.1053C16.8275 21.8932 14.2176 22.8796 11.618 22.8796C11.2583 22.8796 10.8987 22.8591 10.5493 22.8283C7.9086 22.5508 5.6275 21.2562 4.11704 19.1908C3.33612 18.1017 2.80181 16.8789 2.52438 15.5328C2.23667 14.1251 2.24695 12.6661 2.55521 11.1762C3.11007 8.49432 4.61025 6.01799 6.77833 4.20955C8.91557 2.42166 11.5255 1.44551 14.1251 1.44551ZM14.1251 0.428261C8.28878 0.428261 2.80181 4.92881 1.54823 10.9706C0.212455 17.4132 4.19924 22.6639 10.4466 23.3215C10.837 23.3626 11.2275 23.3831 11.618 23.3831C17.4543 23.3831 22.4686 19.0573 23.7222 13.0154C25.058 6.57285 21.5438 1.14753 15.2965 0.489912C14.906 0.438536 14.5156 0.428261 14.1251 0.428261Z" fill="#E99855"/>
<path d="M13.858 1.13725C14.2176 1.13725 14.5773 1.1578 14.9369 1.18862C17.6085 1.46606 19.9101 2.77101 21.4411 4.86716C22.2323 5.95633 22.7769 7.19963 23.0646 8.55596C23.3626 9.97395 23.3523 11.4536 23.0338 12.964C22.4686 15.6767 20.9582 18.1736 18.7593 20.0026C16.5912 21.811 13.9505 22.8077 11.3303 22.8077C10.9707 22.8077 10.611 22.7872 10.2514 22.7563C7.59011 22.4789 5.27818 21.1739 3.74717 19.0778C2.95598 17.9886 2.41139 16.7453 2.12368 15.389C1.8257 13.971 1.83598 12.4914 2.15451 10.9809C2.71965 8.26826 4.24038 5.77138 6.42901 3.94239C8.5868 2.13395 11.2275 1.13725 13.858 1.13725ZM13.858 0.109726C7.96001 0.109726 2.41139 4.66165 1.14754 10.7651C-0.208792 17.2796 3.8191 23.1057 10.1486 23.7736C10.5494 23.8147 10.9398 23.8352 11.3406 23.8352C17.2385 23.8352 22.7872 19.2833 24.051 13.1798C25.4074 6.66532 21.3795 0.839267 15.0499 0.171377C14.6492 0.130276 14.2485 0.109726 13.858 0.109726Z" fill="url(#paint4_linear_1212_1316)"/>
<path opacity="0.7" d="M15.0088 0.171339C14.6081 0.130238 14.2176 0.109688 13.8169 0.109688C7.9189 0.109688 2.37028 4.66161 1.10643 10.7651C0.993399 11.32 0.921472 11.8645 0.880371 12.3989C1.20918 12.6249 1.53799 12.8407 1.87707 13.0565C1.88734 12.368 1.96955 11.6796 2.1134 10.9809C2.67854 8.26822 4.189 5.77134 6.38789 3.94235C8.55597 2.13391 11.1967 1.13721 13.8169 1.13721C14.1765 1.13721 14.5361 1.15776 14.8958 1.18859C17.5673 1.46602 19.869 2.77097 21.4 4.86712C22.1912 5.95629 22.7358 7.1996 23.0235 8.55593C23.3215 9.97391 23.3112 11.4535 22.9927 12.964C22.9721 13.0873 22.9413 13.2106 22.9105 13.3339C23.3112 13.1284 23.7017 12.9126 24.0921 12.6968C25.1607 6.37758 21.1739 0.818679 15.0088 0.171339Z" fill="url(#paint5_linear_1212_1316)"/>
<path d="M14.7519 7.80587L13.2004 5.15486L11.6385 7.78532L13.1696 11.5666L14.7519 7.80587Z" fill="#94512A"/>
<path d="M17.6804 10.2308L18.4921 7.27156L15.5123 8.0011L13.8991 11.7413L17.6804 10.2308Z" fill="#94512A"/>
<path d="M14.2074 12.4605L17.9784 14.0018L20.6191 12.44L17.9784 10.8987L14.2074 12.4605Z" fill="#94512A"/>
<path d="M12.44 11.7516L10.8987 7.98055L7.93945 7.18935L8.68955 10.1692L12.44 11.7516Z" fill="#94512A"/>
<path d="M12.4914 13.1901L8.69984 14.7006L7.89838 17.6598L10.8679 16.9303L11.3406 15.8514L12.4914 13.1901Z" fill="#94512A"/>
<path d="M12.1523 12.4503L8.38131 10.909L5.75085 12.4708L8.39159 14.0224L12.1523 12.4503Z" fill="#94512A"/>
<path d="M17.6701 14.8547L17.6085 14.6183L13.858 13.036L15.3993 16.807L18.3586 17.5879L17.6701 14.8547Z" fill="#94512A"/>
<path d="M14.1765 15.7897L13.1695 13.3648L11.618 17.1358L13.1798 19.7765L14.7314 17.1358L14.1765 15.7897Z" fill="#94512A"/>
<path d="M13.56 12.8099L15.1835 16.5501L18.153 17.2694L17.3516 14.3204L13.56 12.8099Z" fill="url(#paint6_linear_1212_1316)"/>
<path d="M14.3512 7.55926L12.7483 4.93908L11.2378 7.61064L12.851 11.3508L14.3512 7.55926Z" fill="url(#paint7_linear_1212_1316)"/>
<path d="M17.331 9.92257L18.0811 6.95303L15.1115 7.74422L13.5703 11.5152L17.331 9.92257Z" fill="url(#paint8_linear_1212_1316)"/>
<path d="M13.9094 12.2242L17.7112 13.6936L20.3108 12.0804L17.6393 10.5802L13.9094 12.2242Z" fill="url(#paint9_linear_1212_1316)"/>
<path d="M12.1215 11.5563L10.5083 7.81614L7.52844 7.0866L8.34019 10.0459L12.1215 11.5563Z" fill="url(#paint10_linear_1212_1316)"/>
<path d="M11.4125 16.9508L13.0154 19.5505L14.5156 16.8789L12.8818 13.149L11.4125 16.9508Z" fill="url(#paint11_linear_1212_1316)"/>
<path d="M8.44296 14.5772L7.69287 17.5468L10.6521 16.7659L12.1934 12.9846L8.44296 14.5772Z" fill="url(#paint12_linear_1212_1316)"/>
<path d="M11.8543 12.2653L8.0422 10.796L5.44257 12.4092L8.11413 13.8991L11.8543 12.2653Z" fill="url(#paint13_linear_1212_1316)"/>
<path d="M14.752 15.5534L15.1835 16.5501L18.1633 17.2796L17.5571 15.0499C16.6631 15.3582 15.7898 15.4506 14.752 15.5534Z" fill="url(#paint14_linear_1212_1316)"/>
<path d="M8.28881 15.2143L7.70312 17.5468L10.6624 16.7659L11.1042 15.6767C10.1178 15.615 9.17248 15.4609 8.28881 15.2143Z" fill="url(#paint15_linear_1212_1316)"/>
<path d="M12.2139 15.6972C12.1112 15.6972 12.0084 15.6972 11.9057 15.6972L11.4227 16.9405L13.0359 19.5505L14.5361 16.8789L13.9504 15.5534C13.3853 15.6356 12.8099 15.687 12.2139 15.6972Z" fill="url(#paint16_linear_1212_1316)"/>
<path d="M7.34349 6.91192L6.17212 6.98385L7.33322 7.20991L7.52845 7.43596L7.60038 8.63816L7.82643 7.45651L8.04221 7.26128L9.22386 7.18935L8.06276 6.9633L7.86753 6.73725L7.78533 5.54532L7.56955 6.71669L7.34349 6.91192Z" fill="white"/>
</g>
<defs>
<linearGradient id="paint0_linear_1212_1316" x1="27.9769" y1="-9.02182" x2="7.30889" y2="34.0623" gradientUnits="userSpaceOnUse">
<stop stop-color="#FFD243"/>
<stop offset="1" stop-color="#CD571B"/>
</linearGradient>
<linearGradient id="paint1_linear_1212_1316" x1="15.7939" y1="16.731" x2="10.4544" y2="27.8617" gradientUnits="userSpaceOnUse">
<stop stop-color="#E08C3C"/>
<stop offset="1" stop-color="#FFD06F"/>
</linearGradient>
<linearGradient id="paint2_linear_1212_1316" x1="6.15375" y1="44.2332" x2="20.343" y2="-26.8674" gradientUnits="userSpaceOnUse">
<stop stop-color="#F5942A"/>
<stop offset="1" stop-color="#F5D85D"/>
</linearGradient>
<linearGradient id="paint3_linear_1212_1316" x1="9.12054" y1="29.2262" x2="18.3955" y2="-17.2495" gradientUnits="userSpaceOnUse">
<stop stop-color="#E08C3C"/>
<stop offset="1" stop-color="#FFD06F"/>
</linearGradient>
<linearGradient id="paint4_linear_1212_1316" x1="17.2359" y1="-6.33773" x2="5.09186" y2="41.5444" gradientUnits="userSpaceOnUse">
<stop offset="0.199" stop-color="#FFDE43"/>
<stop offset="0.5646" stop-color="#FFD23E"/>
<stop offset="1" stop-color="#FFBD37"/>
</linearGradient>
<linearGradient id="paint5_linear_1212_1316" x1="16.6039" y1="-4.0655" x2="8.69607" y2="27.1141" gradientUnits="userSpaceOnUse">
<stop offset="0.0180995" stop-color="#FFFFA0"/>
<stop offset="0.9762" stop-color="#FFEB6A"/>
</linearGradient>
<linearGradient id="paint6_linear_1212_1316" x1="13.6095" y1="15.086" x2="18.11" y2="14.9951" gradientUnits="userSpaceOnUse">
<stop offset="0.0180995" stop-color="#FFFFA0"/>
<stop offset="0.9762" stop-color="#FFEB6A"/>
</linearGradient>
<linearGradient id="paint7_linear_1212_1316" x1="11.2493" y1="8.17879" x2="14.3593" y2="8.11602" gradientUnits="userSpaceOnUse">
<stop offset="0.0180995" stop-color="#FFFFA0"/>
<stop offset="0.9762" stop-color="#FFEB6A"/>
</linearGradient>
<linearGradient id="paint8_linear_1212_1316" x1="13.5297" y1="9.28095" x2="18.1216" y2="9.18827" gradientUnits="userSpaceOnUse">
<stop offset="0.0180995" stop-color="#FFFFA0"/>
<stop offset="0.9762" stop-color="#FFEB6A"/>
</linearGradient>
<linearGradient id="paint9_linear_1212_1316" x1="13.9057" y1="12.2154" x2="20.3116" y2="12.0861" gradientUnits="userSpaceOnUse">
<stop offset="0.0180995" stop-color="#FFFFA0"/>
<stop offset="0.9762" stop-color="#FFEB6A"/>
</linearGradient>
<linearGradient id="paint10_linear_1212_1316" x1="7.57589" y1="9.3676" x2="12.0764" y2="9.27676" gradientUnits="userSpaceOnUse">
<stop offset="0.0180995" stop-color="#FFFFA0"/>
<stop offset="0.9762" stop-color="#FFEB6A"/>
</linearGradient>
<linearGradient id="paint11_linear_1212_1316" x1="11.3975" y1="16.3809" x2="14.5075" y2="16.3181" gradientUnits="userSpaceOnUse">
<stop offset="0.0180995" stop-color="#FFFFA0"/>
<stop offset="0.9762" stop-color="#FFEB6A"/>
</linearGradient>
<linearGradient id="paint12_linear_1212_1316" x1="7.65023" y1="15.3146" x2="12.2422" y2="15.2219" gradientUnits="userSpaceOnUse">
<stop offset="0.0180995" stop-color="#FFFFA0"/>
<stop offset="0.9762" stop-color="#FFEB6A"/>
</linearGradient>
<linearGradient id="paint13_linear_1212_1316" x1="5.44346" y1="12.4" x2="11.8494" y2="12.2707" gradientUnits="userSpaceOnUse">
<stop offset="0.0180995" stop-color="#FFFFA0"/>
<stop offset="0.9762" stop-color="#FFEB6A"/>
</linearGradient>
<linearGradient id="paint14_linear_1212_1316" x1="14.7613" y1="16.2199" x2="18.1334" y2="16.1518" gradientUnits="userSpaceOnUse">
<stop offset="0.1642" stop-color="#FFDE43"/>
<stop offset="0.2484" stop-color="#FFDA42"/>
<stop offset="1" stop-color="#FFBD37"/>
</linearGradient>
<linearGradient id="paint15_linear_1212_1316" x1="7.67274" y1="16.3863" x2="11.1139" y2="16.3169" gradientUnits="userSpaceOnUse">
<stop offset="0.1642" stop-color="#FFDE43"/>
<stop offset="0.2484" stop-color="#FFDA42"/>
<stop offset="1" stop-color="#FFBD37"/>
</linearGradient>
<linearGradient id="paint16_linear_1212_1316" x1="11.4299" y1="17.595" x2="14.5399" y2="17.5322" gradientUnits="userSpaceOnUse">
<stop offset="0.1642" stop-color="#FFDE43"/>
<stop offset="0.2484" stop-color="#FFDA42"/>
<stop offset="1" stop-color="#FFBD37"/>
</linearGradient>
<clipPath id="clip0_1212_1316">
<rect width="26" height="26" fill="white"/>
</clipPath>
</defs>
</svg>
