<svg width="153" height="156" viewBox="0 0 153 156" fill="none" xmlns="http://www.w3.org/2000/svg">
<path d="M132.507 132.586C130.654 140.371 109.149 147.069 84.501 147.585C59.8526 148.1 41.4364 142.203 43.2893 134.475C45.1421 126.689 66.6464 119.991 91.2948 119.476C115.887 118.903 134.359 124.8 132.507 132.586Z" fill="#E0BFAD" fill-opacity="0.5"/>
<path d="M145.083 81.12C146.936 67.5523 144.746 53.4121 138.009 41.4473C135.819 37.5545 133.236 33.9479 130.204 30.742C126.779 27.0782 122.905 23.8723 119.2 20.4947C129.418 29.7116 135.819 42.7068 137.616 56.4462C139.469 70.2429 136.774 84.7838 130.485 97.1493C124.253 109.458 115.045 119.934 103.535 127.319C92.1368 134.647 78.83 138.711 65.2987 138.368C53.0025 137.967 40.931 133.788 31.2737 125.945C30.5438 125.372 29.8139 124.743 29.1401 124.113C34.0249 128.521 38.7412 133.215 44.2998 136.708C49.4091 139.913 55.08 142.203 60.9192 143.634C73.8891 146.726 87.6451 145.18 99.8851 140.028C112.125 134.876 122.905 126.288 130.878 115.526C138.458 105.45 143.399 93.5427 145.083 81.12Z" fill="url(#paint0_linear_1301_704)"/>
<path opacity="0.5" d="M100.054 139.971C104.321 138.196 108.419 135.963 112.294 133.33L107.633 128.292C107.072 128.693 106.51 129.036 105.949 129.437C94.3266 136.937 80.739 141.058 66.9269 140.658C57.1574 140.371 47.5001 137.681 39.0781 132.7C40.8187 134.074 42.6154 135.448 44.5244 136.593C49.6337 139.799 55.3045 142.089 61.1438 143.52C74.0576 146.611 87.7574 145.123 100.054 139.971Z" fill="url(#paint1_linear_1301_704)"/>
<path d="M87.6453 6.52624C122.176 10.2473 144.185 42.6495 136.83 79.0018C129.418 115.297 95.4497 141.745 60.8633 138.024C26.333 134.303 4.32344 101.901 11.7348 65.5486C19.09 29.2536 53.115 2.80514 87.6453 6.52624Z" fill="url(#paint2_linear_1301_704)"/>
<path opacity="0.2" d="M87.196 8.07193C53.8448 4.46532 21.0551 29.9978 13.8683 65.0334C13.3068 67.724 12.9138 70.4147 12.6892 73.0481C26.6698 83.3527 43.5699 90.1079 62.5476 92.1116C87.8698 94.8022 113.024 88.6767 134.977 76.025C141.041 41.7908 119.93 11.564 87.196 8.07193Z" fill="url(#paint3_linear_1301_704)"/>
<path opacity="0.5" d="M66.141 134.933C35.3164 131.612 12.9138 104.248 19.8199 70.3002C26.7259 36.3523 58.5611 11.6213 90.8455 15.0561C117.964 17.9758 133.854 41.2756 135.033 67.0371C136.381 36.4095 116.112 10.7626 86.0731 7.5567C52.6657 3.95009 19.7076 29.5398 12.5769 64.6899C5.39013 99.84 26.7259 131.269 60.1894 134.876C63.2213 135.219 66.2533 135.276 69.2852 135.162C68.2184 135.105 67.1516 135.047 66.141 134.933Z" fill="#A58659"/>
<path d="M82.6481 13.625C84.6133 13.625 86.5784 13.7394 88.4874 13.9112C102.917 15.4569 115.382 22.6701 123.635 34.1769C127.902 40.1879 130.878 47.0004 132.394 54.4998C133.966 62.3427 133.91 70.4719 132.226 78.7728C129.194 93.7145 120.996 107.511 109.149 117.587C97.4147 127.548 83.1535 133.044 68.9483 133.044C66.9832 133.044 65.0181 132.929 63.1091 132.757C48.6793 131.212 36.2148 123.999 27.9612 112.492C23.694 106.423 20.7744 99.611 19.2584 92.1116C17.6863 84.2686 17.7425 76.1394 19.4269 67.8385C22.4588 52.8969 30.6562 39.1002 42.5032 29.0246C54.1817 19.0635 68.443 13.625 82.6481 13.625ZM82.6481 7.95743C50.7568 7.95743 20.7744 33.0319 13.9245 66.6936C6.62539 102.588 28.4103 131.841 62.5476 135.505C64.6812 135.734 66.8148 135.849 68.9483 135.849C100.84 135.849 128.239 111.748 135.089 78.0859C142.388 42.1916 123.186 11.9648 89.0489 8.30092C86.9153 8.01468 84.7817 7.95743 82.6481 7.95743Z" fill="#937953"/>
<path d="M81.1883 11.9075C83.1534 11.9075 85.1185 12.022 87.0837 12.1938C101.682 13.7394 114.259 21.0099 122.625 32.6884C126.948 38.7567 129.924 45.6837 131.496 53.2404C133.124 61.1405 133.068 69.3842 131.327 77.7996C128.239 92.913 119.986 106.824 107.97 117.014C96.1233 127.09 81.6936 132.643 67.3762 132.643C65.411 132.643 63.4459 132.528 61.4807 132.357C46.9387 130.811 34.3057 123.541 25.9398 111.862C21.6165 105.794 18.6407 98.8668 17.0686 91.3101C15.4404 83.4099 15.4965 75.1662 17.2371 66.7508C20.3251 51.6374 28.6349 37.7262 40.5941 27.5361C52.385 17.4605 66.8147 11.9075 81.1883 11.9075ZM81.1883 6.18275C48.96 6.18275 18.6407 31.5435 11.7347 65.5486C4.32331 101.844 26.3329 134.303 60.9193 138.024C63.109 138.253 65.2426 138.368 67.4323 138.368C99.6606 138.368 129.98 113.007 136.886 79.0018C144.297 42.7068 122.288 10.2473 87.7013 6.52624C85.5116 6.29725 83.3218 6.18275 81.1883 6.18275Z" fill="url(#paint4_linear_1301_704)"/>
<path opacity="0.7" d="M87.4767 6.52622C85.287 6.29723 83.1534 6.18273 80.9637 6.18273C48.7354 6.18273 18.4162 31.5435 11.5101 65.5486C10.8925 68.64 10.4995 71.6741 10.2749 74.651C12.0716 75.9104 13.8683 77.1126 15.7211 78.3148C15.7773 74.4792 16.2265 70.6436 17.0125 66.7508C20.1006 51.6374 28.3542 37.7262 40.3696 27.5361C52.2166 17.4605 66.6463 11.9075 80.9637 11.9075C82.9288 11.9075 84.894 12.022 86.8591 12.1937C101.457 13.7394 114.034 21.0099 122.4 32.6884C126.723 38.7567 129.699 45.6836 131.271 53.2403C132.899 61.1405 132.843 69.3842 131.103 77.7996C130.99 78.4866 130.822 79.1736 130.654 79.8605C132.843 78.7156 134.977 77.5134 137.11 76.3112C142.95 41.1038 121.165 10.1328 87.4767 6.52622Z" fill="url(#paint5_linear_1301_704)"/>
<path d="M86.0725 49.0614L77.5944 34.2915L69.0601 48.9469L77.4259 70.0141L86.0725 49.0614Z" fill="#A58659"/>
<path d="M102.074 62.5719L106.51 46.0845L90.2274 50.1491L81.4124 70.9873L102.074 62.5719Z" fill="#A58659"/>
<path d="M83.0967 74.9946L103.703 83.5818L118.132 74.8801L103.703 66.293L83.0967 74.9946Z" fill="#A58659"/>
<path d="M73.4395 71.0445L65.0174 50.0346L48.8472 45.6265L52.9459 62.2284L73.4395 71.0445Z" fill="#A58659"/>
<path d="M73.7202 79.0592L53.002 87.4746L48.6226 103.962L64.849 99.8974L67.4317 93.8863L73.7202 79.0592Z" fill="#A58659"/>
<path d="M71.8674 74.9374L51.2615 66.3502L36.8879 75.0519L51.3177 83.6963L71.8674 74.9374Z" fill="#A58659"/>
<path d="M102.018 88.3333L101.681 87.0166L81.1877 78.2005L89.6098 99.2104L105.78 103.561L102.018 88.3333Z" fill="#A58659"/>
<path d="M82.9283 93.5429L77.4259 80.0324L68.9478 101.042L77.4821 115.755L85.9602 101.042L82.9283 93.5429Z" fill="#A58659"/>
<g filter="url(#filter0_d_1301_704)">
<path d="M79.5601 76.9409L88.4313 97.7791L104.658 101.786L100.278 85.3563L79.5601 76.9409Z" fill="url(#paint6_linear_1301_704)"/>
<path d="M83.8833 47.6873L75.1244 33.0892L66.8708 47.9736L75.6859 68.8117L83.8833 47.6873Z" fill="url(#paint7_linear_1301_704)"/>
<path d="M100.166 60.8543L104.265 44.3097L88.0382 48.7178L79.6162 69.7277L100.166 60.8543Z" fill="url(#paint8_linear_1301_704)"/>
<path d="M81.469 73.6778L102.243 81.8642L116.448 72.8763L101.85 64.5182L81.469 73.6778Z" fill="url(#paint9_linear_1301_704)"/>
<path d="M71.6994 69.9567L62.8844 49.1185L46.6018 45.0539L51.0374 61.5413L71.6994 69.9567Z" fill="url(#paint10_linear_1301_704)"/>
<path d="M67.8254 100.012L76.5843 114.495L84.7818 99.611L75.8544 78.8301L67.8254 100.012Z" fill="url(#paint11_linear_1301_704)"/>
<path d="M51.599 86.7875L47.5002 103.332L63.6705 98.9813L72.0925 77.9141L51.599 86.7875Z" fill="url(#paint12_linear_1301_704)"/>
<path d="M70.2397 73.9068L49.4092 65.7204L35.2041 74.7083L49.8023 83.0092L70.2397 73.9068Z" fill="url(#paint13_linear_1301_704)"/>
</g>
<path d="M86.073 92.2261L88.4312 97.7791L104.714 101.844L101.401 89.4209C96.5163 91.1384 91.7438 91.6536 86.073 92.2261Z" fill="url(#paint14_linear_1301_704)"/>
<path d="M50.7568 90.3369L47.5564 103.332L63.7267 98.9813L66.141 92.913C60.7509 92.5695 55.5854 91.7108 50.7568 90.3369Z" fill="url(#paint15_linear_1301_704)"/>
<path d="M72.2047 93.0275C71.6432 93.0275 71.0817 93.0275 70.5202 93.0275L67.8813 99.9545L76.6964 114.495L84.8938 99.611L81.6935 92.2261C78.6054 92.684 75.4612 92.9703 72.2047 93.0275Z" fill="url(#paint16_linear_1301_704)"/>
<path d="M45.5912 44.0807L39.1904 44.4815L45.535 45.7409L46.6018 47.0004L46.9948 53.6984L48.2301 47.1149L49.4091 46.0272L55.866 45.6264L49.5214 44.367L48.4546 43.1075L48.0055 36.4668L46.8264 42.993L45.5912 44.0807Z" fill="white"/>
<defs>
<filter id="filter0_d_1301_704" x="35.2041" y="33.0892" width="82.2444" height="82.4062" filterUnits="userSpaceOnUse" color-interpolation-filters="sRGB">
<feFlood flood-opacity="0" result="BackgroundImageFix"/>
<feColorMatrix in="SourceAlpha" type="matrix" values="0 0 0 0 0 0 0 0 0 0 0 0 0 0 0 0 0 0 127 0" result="hardAlpha"/>
<feOffset dx="1" dy="1"/>
<feComposite in2="hardAlpha" operator="out"/>
<feColorMatrix type="matrix" values="0 0 0 0 0 0 0 0 0 0 0 0 0 0 0 0 0 0 0.2 0"/>
<feBlend mode="normal" in2="BackgroundImageFix" result="effect1_dropShadow_1301_704"/>
<feBlend mode="normal" in="SourceGraphic" in2="effect1_dropShadow_1301_704" result="shape"/>
</filter>
<linearGradient id="paint0_linear_1301_704" x1="128.489" y1="-9.79592" x2="13.2239" y2="9.42156" gradientUnits="userSpaceOnUse">
<stop stop-color="#9F8352"/>
<stop offset="0.4" stop-color="#F2D5A3"/>
<stop offset="0.735" stop-color="#BEA06C"/>
<stop offset="1" stop-color="#EECF99"/>
</linearGradient>
<linearGradient id="paint1_linear_1301_704" x1="101.475" y1="124.205" x2="55.0355" y2="160.243" gradientUnits="userSpaceOnUse">
<stop stop-color="#9F8352"/>
<stop offset="0.4" stop-color="#F2D5A3"/>
<stop offset="0.735" stop-color="#BEA06C"/>
<stop offset="1" stop-color="#EECF99"/>
</linearGradient>
<linearGradient id="paint2_linear_1301_704" x1="119.341" y1="-25.9277" x2="-6.92326" y2="-4.12821" gradientUnits="userSpaceOnUse">
<stop stop-color="#9F8352"/>
<stop offset="0.4" stop-color="#F2D5A3"/>
<stop offset="0.735" stop-color="#BEA06C"/>
<stop offset="1" stop-color="#EECF99"/>
</linearGradient>
<linearGradient id="paint3_linear_1301_704" x1="117.792" y1="-12.9114" x2="0.329105" y2="17.4882" gradientUnits="userSpaceOnUse">
<stop stop-color="#9F8352"/>
<stop offset="0.4" stop-color="#F2D5A3"/>
<stop offset="0.735" stop-color="#BEA06C"/>
<stop offset="1" stop-color="#EECF99"/>
</linearGradient>
<linearGradient id="paint4_linear_1301_704" x1="9.14784" y1="73.632" x2="139.474" y2="71.0554" gradientUnits="userSpaceOnUse">
<stop stop-color="#CEAC70"/>
<stop offset="1" stop-color="#F2D6A4"/>
</linearGradient>
<linearGradient id="paint5_linear_1301_704" x1="9.12609" y1="43.7779" x2="139.094" y2="39.1766" gradientUnits="userSpaceOnUse">
<stop stop-color="#CEAC70"/>
<stop offset="1" stop-color="#F2D6A4"/>
</linearGradient>
<linearGradient id="paint6_linear_1301_704" x1="79.3344" y1="89.6187" x2="104.883" y2="89.0919" gradientUnits="userSpaceOnUse">
<stop stop-color="#CEAC70"/>
<stop offset="1" stop-color="#F2D6A4"/>
</linearGradient>
<linearGradient id="paint7_linear_1301_704" x1="66.7179" y1="51.3171" x2="84.0416" y2="51.1487" gradientUnits="userSpaceOnUse">
<stop stop-color="#CEAC70"/>
<stop offset="1" stop-color="#F2D6A4"/>
</linearGradient>
<linearGradient id="paint8_linear_1301_704" x1="79.3946" y1="57.2796" x2="104.486" y2="56.7829" gradientUnits="userSpaceOnUse">
<stop stop-color="#CEAC70"/>
<stop offset="1" stop-color="#F2D6A4"/>
</linearGradient>
<linearGradient id="paint9_linear_1301_704" x1="81.1545" y1="73.3692" x2="116.717" y2="71.9053" gradientUnits="userSpaceOnUse">
<stop stop-color="#CEAC70"/>
<stop offset="1" stop-color="#F2D6A4"/>
</linearGradient>
<linearGradient id="paint10_linear_1301_704" x1="46.3762" y1="57.7609" x2="71.9245" y2="57.2353" gradientUnits="userSpaceOnUse">
<stop stop-color="#CEAC70"/>
<stop offset="1" stop-color="#F2D6A4"/>
</linearGradient>
<linearGradient id="paint11_linear_1301_704" x1="67.673" y1="97.0288" x2="84.9395" y2="96.8613" gradientUnits="userSpaceOnUse">
<stop stop-color="#CEAC70"/>
<stop offset="1" stop-color="#F2D6A4"/>
</linearGradient>
<linearGradient id="paint12_linear_1301_704" x1="47.2791" y1="90.884" x2="72.3139" y2="90.3896" gradientUnits="userSpaceOnUse">
<stop stop-color="#CEAC70"/>
<stop offset="1" stop-color="#F2D6A4"/>
</linearGradient>
<linearGradient id="paint13_linear_1301_704" x1="34.8891" y1="74.5422" x2="70.508" y2="73.0688" gradientUnits="userSpaceOnUse">
<stop stop-color="#CEAC70"/>
<stop offset="1" stop-color="#F2D6A4"/>
</linearGradient>
<linearGradient id="paint14_linear_1301_704" x1="85.9054" y1="95.7598" x2="104.871" y2="95.1789" gradientUnits="userSpaceOnUse">
<stop stop-color="#CEAC70"/>
<stop offset="1" stop-color="#F2D6A4"/>
</linearGradient>
<linearGradient id="paint15_linear_1301_704" x1="63.3949" y1="87.1809" x2="45.6622" y2="91.7046" gradientUnits="userSpaceOnUse">
<stop stop-color="#9F8352"/>
<stop offset="0.4" stop-color="#F2D5A3"/>
<stop offset="0.735" stop-color="#BEA06C"/>
<stop offset="1" stop-color="#EECF99"/>
</linearGradient>
<linearGradient id="paint16_linear_1301_704" x1="67.7284" y1="103.589" x2="85.0495" y2="103.319" gradientUnits="userSpaceOnUse">
<stop stop-color="#CEAC70"/>
<stop offset="1" stop-color="#F2D6A4"/>
</linearGradient>
</defs>
</svg>
