<svg width="59" height="59" viewBox="0 0 59 59" fill="none" xmlns="http://www.w3.org/2000/svg">
<path d="M43.2151 26.1781C43.5552 26.3045 43.9267 26.3129 44.2803 26.2316C45.7616 25.8917 50.8552 24.9913 49.9702 28.9384C49.7774 29.7214 46.7943 34.1073 51.0426 35.708C51.354 35.8269 51.6831 35.8918 52.0163 35.8998C53.3244 35.9268 55.9164 35.6179 57.0011 34.5137C58.3118 33.1797 56.88 33.8122 56.88 33.8122C56.88 33.8122 51.8978 35.9864 50.138 33.6797C49.9422 33.4231 49.8175 33.0503 49.7819 32.7294C49.7199 32.1731 49.9669 31.4379 50.2914 30.7978C50.7307 29.9315 52.8393 26.0348 48.2609 24.8997C47.2063 24.6485 45.6744 24.423 43.6994 25.2545C42.5472 25.7396 42.8024 26.0247 43.2151 26.1781Z" fill="#5C54FF"/>
<path d="M44.2369 24.7233L42.9109 25.2198C42.4532 25.3911 42.221 25.901 42.3923 26.3587L42.4581 26.5344C42.6294 26.9921 43.1393 27.2243 43.597 27.053L44.9232 26.5567C45.3809 26.3854 45.6131 25.8755 45.4418 25.4176L45.376 25.2421C45.2047 24.7842 44.6948 24.552 44.2369 24.7233Z" fill="#5C54FF"/>
<path d="M36.0983 26.1595L31.7251 27.7964C31.4961 27.8819 31.38 28.1369 31.4657 28.3657L31.483 28.4119C31.5686 28.6407 31.8235 28.7568 32.0526 28.6713L36.4257 27.0344C36.6548 26.9487 36.7709 26.6937 36.6851 26.4649L36.6679 26.4187C36.5823 26.1899 36.3273 26.0738 36.0983 26.1595Z" fill="#5C54FF"/>
<path d="M37.317 29.4208L32.9437 31.0574C32.7148 31.1431 32.5987 31.3981 32.6845 31.6269L32.7016 31.6731C32.7873 31.9019 33.0423 32.018 33.2711 31.9323L37.6445 30.2957C37.8733 30.2099 37.9894 29.9549 37.9039 29.7261L37.8866 29.6799C37.8011 29.4511 37.5459 29.335 37.317 29.4208Z" fill="#5C54FF"/>
<path d="M41.354 23.934L37.8095 25.2605C37.3517 25.4318 37.1194 25.9419 37.2908 26.3996L38.5011 29.633C38.6724 30.0907 39.1823 30.3229 39.64 30.1516L43.1846 28.8251C43.6423 28.6538 43.8745 28.1439 43.7032 27.686L42.4931 24.4526C42.3218 23.9949 41.8118 23.7627 41.354 23.934Z" fill="#5C54FF"/>
<path d="M38.1743 24.7821L34.6296 26.1087C34.172 26.2801 33.9398 26.79 34.1111 27.2479L35.5549 31.1054C35.7262 31.5631 36.2361 31.7953 36.6938 31.624L40.2384 30.2975C40.6961 30.1262 40.9283 29.6163 40.757 29.1584L39.3132 25.3009C39.1419 24.843 38.6319 24.6108 38.1743 24.7821Z" fill="#5C54FF"/>
<path d="M38.7315 23.9993L38.7037 24.0096C38.3986 24.1238 38.2437 24.4639 38.3579 24.769L40.3805 30.1732C40.4947 30.4784 40.8346 30.6332 41.1397 30.519L41.1676 30.5085C41.4729 30.3943 41.6276 30.0544 41.5133 29.7493L39.4909 24.3451C39.3767 24.04 39.0366 23.8851 38.7315 23.9993Z" fill="#5C54FF"/>
<path d="M2.58823 27.4544C2.58823 27.4544 9.70681 25.4539 8.67332 30.063C8.49384 30.7923 5.91025 34.5472 8.98769 36.3501C9.64849 36.7372 10.4111 36.9087 11.1769 36.9047C12.5499 36.8975 14.7265 36.6333 15.7044 35.6381C17.0149 34.3041 15.5832 34.9366 15.5832 34.9366C15.5832 34.9366 11.4949 36.6184 9.39158 35.2778C8.67341 34.8201 8.34787 33.9338 8.54289 33.1047C8.64258 32.693 8.79436 32.2955 8.9946 31.9222C9.45202 31.0654 11.5426 27.1592 6.96418 26.0241C5.90949 25.7729 4.37764 25.5474 2.40246 26.3789C0.427294 27.2106 2.58823 27.4544 2.58823 27.4544Z" fill="#5C54FF"/>
<path d="M16.6589 33.9052L15.3329 34.4016C14.8751 34.5729 14.6429 35.0829 14.8142 35.5408L14.8799 35.7163C15.0513 36.1742 15.5612 36.4064 16.019 36.2349L17.3451 35.7386C17.8028 35.5673 18.035 35.0574 17.8637 34.5995L17.798 34.424C17.6267 33.9661 17.1167 33.7339 16.6589 33.9052Z" fill="#5C54FF"/>
<path d="M18.8997 31.7234L16.9344 32.459C16.4766 32.6303 16.2444 33.1403 16.4158 33.5982L17.3634 36.1301C17.5348 36.588 18.0447 36.8202 18.5025 36.6489L20.4678 35.9133C20.9256 35.742 21.1577 35.232 20.9865 34.7742L20.0388 32.2422C19.8675 31.7843 19.3575 31.5521 18.8997 31.7234Z" fill="#5C54FF"/>
<path d="M22.1699 29.7739L19.2391 30.8709C18.7813 31.0422 18.5491 31.5521 18.7205 32.01L20.1642 35.8676C20.3355 36.3254 20.8455 36.5576 21.3032 36.3863L24.234 35.2894C24.6919 35.118 24.9241 34.6081 24.7528 34.1502L23.309 30.2927C23.1377 29.8348 22.6278 29.6026 22.1699 29.7739Z" fill="#5C54FF"/>
<path d="M22.794 28.9751L22.7662 28.9854C22.4609 29.0996 22.3062 29.4397 22.4204 29.7448L24.4429 35.149C24.5571 35.4541 24.8972 35.609 25.2023 35.4948L25.2301 35.4843C25.5352 35.3701 25.6901 35.0302 25.5759 34.7248L23.5532 29.3209C23.439 29.0157 23.0991 28.8609 22.794 28.9751Z" fill="#5C54FF"/>
<path d="M30.2789 25.5322C30.1733 25.5204 30.0764 25.4684 30.0085 25.3866C29.9409 25.3049 29.9074 25.2001 29.9152 25.0941L30.1339 21.0998C30.147 20.8613 30.3484 20.68 30.577 20.7011L30.8956 20.7306C31.1243 20.7517 31.288 20.9666 31.2559 21.2035L30.7186 25.1683C30.7064 25.2739 30.6537 25.3706 30.5718 25.4385C30.4898 25.5063 30.3849 25.5398 30.2789 25.5322Z" fill="#5C54FF"/>
<path d="M28.3913 25.8766C28.3584 25.8863 28.324 25.8894 28.2899 25.8858C28.256 25.882 28.2229 25.8717 28.193 25.8553C28.1628 25.8391 28.1365 25.8169 28.115 25.7902C28.0935 25.7636 28.0775 25.7329 28.0678 25.7002L27.2869 23.2155C27.2641 23.1449 27.2705 23.068 27.3042 23.002C27.3381 22.9358 27.3967 22.8859 27.4675 22.8631L27.6696 22.802C27.7043 22.7919 27.7408 22.7892 27.7766 22.7938C27.8124 22.7984 27.8468 22.8105 27.8777 22.8292C27.9087 22.8478 27.9355 22.8726 27.9563 22.9021C27.9772 22.9316 27.9917 22.9651 27.9989 23.0005L28.5777 25.5464C28.594 25.6146 28.5836 25.6867 28.5491 25.748C28.5145 25.8091 28.4583 25.8551 28.3913 25.8766Z" fill="#5C54FF"/>
<path d="M27.3367 27.3094C27.1968 27.4829 26.9153 27.4808 26.6987 27.3048L22.8529 24.1801C22.623 23.9934 22.5554 23.6845 22.7037 23.5008L22.9107 23.2446C23.0592 23.0606 23.3639 23.0758 23.5814 23.2776L27.2204 26.6588C27.4254 26.849 27.4766 27.1362 27.3367 27.3094Z" fill="#5C54FF"/>
<path d="M29.1151 35.3802C29.2141 35.4186 29.2944 35.4938 29.339 35.5901C29.3839 35.6864 29.3894 35.7964 29.3548 35.8967L28.1232 39.7026C28.0497 39.9299 27.8086 40.0536 27.5929 39.9748L27.2922 39.865C27.0766 39.7862 26.9731 39.5365 27.0646 39.3159L28.5967 35.6198C28.6357 35.5207 28.7111 35.4407 28.8078 35.396C28.9043 35.3513 29.0143 35.3456 29.1151 35.3802Z" fill="#5C54FF"/>
<path d="M31.0275 35.5296C31.0616 35.5285 31.0958 35.5344 31.1278 35.5467C31.1596 35.5589 31.1889 35.5772 31.2138 35.6008C31.2386 35.6242 31.2587 35.6524 31.2726 35.6836C31.2865 35.7148 31.2943 35.7485 31.2951 35.7829L31.4156 38.3846C31.4194 38.4587 31.3939 38.5312 31.3442 38.5864C31.2947 38.6418 31.2252 38.6751 31.1512 38.6791L30.9401 38.6865C30.9038 38.6874 30.868 38.6808 30.8345 38.6671C30.801 38.6534 30.7709 38.633 30.7456 38.6071C30.7205 38.5812 30.7009 38.5504 30.6883 38.5165C30.6758 38.4825 30.6703 38.4465 30.6722 38.4105L30.7629 35.8014C30.7647 35.731 30.7932 35.664 30.8421 35.6137C30.8912 35.5633 30.9573 35.5334 31.0275 35.5296Z" fill="#5C54FF"/>
<path d="M32.4099 34.4132C32.5894 34.2813 32.861 34.3553 33.0254 34.5807L35.9459 38.5839C36.1201 38.823 36.1069 39.1389 35.9164 39.2788L35.6509 39.4737C35.4604 39.6136 35.1694 39.5211 35.0107 39.2704L32.3557 35.0721C32.2065 34.8359 32.2304 34.5451 32.4099 34.4132Z" fill="#5C54FF"/>
</svg>
