<svg id="Layer_8" data-name="Layer 8" xmlns="http://www.w3.org/2000/svg" width="35.827"
    height="35.969" viewBox="0 0 35.827 35.969">
    <path id="Path_119" data-name="Path 119"
        d="M99.089,42.44h-1.8a9.66,9.66,0,1,0,0,19.319h1.8a9.657,9.657,0,0,0,2.842-.424l2.964,2.969V59.82a9.66,9.66,0,0,0-5.806-17.38Zm-.2,16.007a.719.719,0,1,1,.209-.505.719.719,0,0,1-.209.505Zm.209-5.165v1.669a.719.719,0,1,1-1.428,0V53.237a1.351,1.351,0,0,1,1.065-1.324,1.6,1.6,0,1,0-1.944-1.556.719.719,0,0,1-1.428,0,3.032,3.032,0,0,1,.968-2.219A3.023,3.023,0,1,1,99.1,53.284Z"
        transform="translate(-72.921 -42.44)" fill="#fff" />
    <path id="Path_120" data-name="Path 120"
        d="M29.5,123.151a9.663,9.663,0,0,1-9.259-6.9H10.132a4.282,4.282,0,0,0-4.282,4.282v10.991a4.282,4.282,0,0,0,4.282,4.286H14.7l3.135,3.135v-3.135h7.705a4.282,4.282,0,0,0,4.282-4.282v-8.376ZM9.7,121.241H20.123a.719.719,0,0,1,0,1.428H9.7a.719.719,0,0,1,0-1.428Zm12.252,9.424H9.7a.719.719,0,0,1,0-1.428H21.956a.719.719,0,0,1,0,1.428Zm3.311-.209a.719.719,0,1,1,.209-.505A.719.719,0,0,1,25.267,130.457Zm-.505-3.788H9.7a.719.719,0,0,1,0-1.428H24.762a.719.719,0,0,1,0,1.428Z"
        transform="translate(-5.85 -102.975)" fill="#fff" />
</svg>
