<svg width="375" height="326" viewBox="0 0 375 326" fill="none" xmlns="http://www.w3.org/2000/svg">
<path opacity="0.3" fill-rule="evenodd" clip-rule="evenodd" d="M164.848 2L374.5 6.94239V324.5L172 238L164.848 205.266V2Z" fill="url(#paint0_linear_8502_8304)"/>
<path opacity="0.3" fill-rule="evenodd" clip-rule="evenodd" d="M0 0H164.5V226.247L177.5 247L0 298V0Z" fill="url(#paint1_linear_8502_8304)"/>
<path d="M306.5 295L209.996 253.501L155.5 289.5L239.004 325.5L306.5 295Z" fill="url(#paint2_linear_8502_8304)"/>
<mask id="mask0_8502_8304" style="mask-type:luminance" maskUnits="userSpaceOnUse" x="80" y="135" width="196" height="184">
<rect x="80.4883" y="135.054" width="194.57" height="183.452" fill="white"/>
</mask>
<g mask="url(#mask0_8502_8304)">
<path d="M126.314 166.921C125.921 166.886 125.622 166.53 125.695 166.155L127.312 158.37C127.4 157.957 127.854 157.748 128.235 157.913L144.857 166.495C145.489 166.815 145.224 167.738 144.553 167.717L126.314 166.921Z" fill="url(#paint3_linear_8502_8304)"/>
<path d="M125.686 150.436C125.321 150.233 125.241 149.791 125.521 149.461L130.519 143.282C130.799 142.952 131.284 142.982 131.545 143.321L142.413 158.567C142.815 159.103 142.185 159.822 141.57 159.464L125.686 150.436Z" fill="url(#paint4_linear_8502_8304)"/>
<path d="M140.412 146.592C140.189 146.269 140.295 145.818 140.639 145.652L144.82 143.542C145.219 143.354 145.66 143.591 145.757 143.994L147.952 154.792C148.102 155.489 147.212 155.87 146.789 155.279L140.412 146.592Z" fill="url(#paint5_linear_8502_8304)"/>
<path d="M212.095 174.401C212.083 174.361 212.083 174.361 212.071 174.321C212.048 174.241 212.025 174.161 211.99 174.042C209.998 167.824 203.949 166.172 203.949 166.172L203.058 167.992L161.311 166.867C156.4 166.744 152.315 170.625 152.204 175.552L149.702 277.292L147.454 281.848C149.045 286.84 154.011 289.069 154.062 289.097C155.308 289.815 156.734 290.264 158.293 290.285L200.734 291.424C205.645 291.546 209.729 287.665 209.841 282.738L212.428 177.162C212.531 176.482 212.452 175.769 212.281 175.039C212.223 174.84 212.165 174.64 212.095 174.401Z" fill="#D7D7D7"/>
<path d="M155.881 287.619C150.97 287.497 147.093 283.39 147.205 278.463L149.792 172.887C149.904 167.96 153.988 164.079 158.899 164.201L201.34 165.34C206.251 165.463 210.127 169.57 210.016 174.497L207.429 280.073C207.317 285 203.233 288.881 198.322 288.758L155.881 287.619Z" fill="url(#paint6_linear_8502_8304)"/>
<path d="M195.343 168.473L195.282 170.18C195.225 171.756 193.948 172.996 192.35 172.987L167.22 172.327C165.649 172.267 164.411 170.983 164.416 169.379L164.477 167.672L158.952 167.513C155.389 167.429 152.417 170.248 152.302 173.833L149.724 278.411C149.648 281.985 152.464 284.973 156.038 285.096L197.915 286.227C201.478 286.311 204.449 283.492 204.565 279.907L207.143 175.329C207.298 171.732 204.443 168.756 200.869 168.632L195.343 168.473Z" fill="url(#paint7_linear_8502_8304)"/>
<path d="M205.947 226.398L150.336 256.184L150.045 267.574L205.599 240.101L205.947 226.398Z" fill="#EAEAEA"/>
<path d="M150.857 234.809L206.376 207.952L207.108 178.458L151.66 202.608L150.857 234.809Z" fill="url(#paint8_linear_8502_8304)"/>
<path d="M176.07 170.128C175.769 170.129 175.517 169.857 175.514 169.554C175.512 169.252 175.783 168.999 176.085 168.997L183.523 169.203C183.824 169.202 184.076 169.474 184.079 169.777C184.081 170.079 183.81 170.332 183.508 170.334L176.07 170.128Z" fill="white"/>
<path fill-rule="evenodd" clip-rule="evenodd" d="M188.082 169.602C188.218 170.065 187.954 170.549 187.493 170.684C187.032 170.819 186.549 170.553 186.413 170.09C186.278 169.628 186.542 169.143 187.003 169.008C187.463 168.873 187.947 169.139 188.082 169.602C188.218 170.065 188.082 169.602 188.082 169.602Z" fill="white"/>
</g>
<path d="M248.623 267.455C247.72 266.685 246.518 265.775 244.997 264.626C239.359 260.35 228.927 252.427 211.157 234.723C212.525 232.233 213.302 229.444 213.388 226.509C213.547 221.489 211.602 216.568 208.049 213.015C202.178 207.145 193.074 205.97 185.909 210.16C185.584 210.352 185.384 210.704 185.384 211.083C185.384 211.461 185.59 211.813 185.916 211.999L196.946 218.368C198.035 223.873 194.874 229.371 189.521 231.217L178.458 224.816C178.133 224.63 177.728 224.623 177.402 224.816C177.077 225.002 176.871 225.347 176.864 225.725C176.805 231.124 179.122 236.251 183.226 239.79C186.626 242.725 190.876 244.186 195.126 244.186C197.51 244.186 199.887 243.708 202.125 242.785C218.202 258.935 225.806 270.131 230.361 276.845C231.955 279.196 233.111 280.896 234.1 282.005C237.128 285.391 240.422 287.224 243.636 287.311C243.716 287.311 247.175 287.842 250.828 284.189C253.125 281.892 254.241 279.375 254.135 276.725C254.002 273.578 252.149 270.457 248.623 267.455ZM242.6 280.019C240.349 280.019 238.516 278.193 238.516 275.935C238.516 273.677 240.342 271.851 242.6 271.851C244.858 271.851 246.684 273.677 246.684 275.935C246.684 278.193 244.851 280.019 242.6 280.019Z" fill="#BCBCBC"/>
<path d="M213.595 237.127C212.798 236.344 211.988 235.54 211.157 234.717C212.525 232.227 213.302 229.438 213.389 226.502C213.448 224.51 213.176 222.545 212.612 220.665C212.107 219.835 211.31 218.945 210.805 219.483C211.011 226.004 209.119 232.798 204.583 237.486C202.332 239.81 199.404 241.49 196.262 242.287C194.709 242.679 193.102 242.852 191.501 242.765C190.565 242.712 187.922 241.736 187.391 242.453V242.486C189.828 243.622 192.471 244.186 195.114 244.186C197.498 244.186 199.875 243.708 202.113 242.785C207.312 248.011 211.622 252.713 215.235 256.916C213.429 253.503 208.103 247.201 206.682 244.797C206.363 244.253 205.911 242.858 206.927 241.603C208.368 239.843 211.297 238.21 213.595 237.127Z" fill="#8B8B8B"/>
<path d="M219.491 249.432C219.491 249.432 221.968 248.343 225.633 251.312C229.299 254.287 243.404 266.28 244.592 267.867C245.781 269.454 240.993 267.84 239.306 267.548C237.626 267.249 219.491 249.432 219.491 249.432ZM201.767 212.969C203.812 214.436 205.645 216.17 207.564 217.803C208.055 218.221 208.779 218.646 209.291 218.241C209.842 217.803 209.496 216.927 209.078 216.355C205.452 211.375 198.686 207.816 192.145 209.23C195.598 210.339 198.699 210.777 201.767 212.969Z" fill="white"/>
<path d="M185.504 230.062C186.308 230.54 187.424 231.191 188.068 231.37C188.845 231.582 191.029 230.739 191.667 230.228C189.05 228.521 186.129 226.609 183.506 224.902C183.207 224.709 182.908 224.51 182.569 224.404C182.158 224.278 181.719 224.284 181.294 224.311C180.697 224.337 177.775 224.238 177.436 224.756C177.091 225.28 178.306 225.778 178.698 226.018C180.962 227.372 183.24 228.707 185.504 230.062Z" fill="#8B8B8B"/>
<path d="M129.137 218.087C129.331 218.614 129.168 219.201 128.75 219.577L126.128 221.962C126.195 222.465 126.231 222.979 126.231 223.5C126.231 224.021 126.195 224.535 126.128 225.038L128.75 227.423C129.168 227.799 129.331 228.386 129.137 228.913C128.871 229.633 128.55 230.324 128.181 230.99L127.896 231.48C127.497 232.146 127.049 232.776 126.558 233.369C126.201 233.805 125.608 233.95 125.075 233.781L121.702 232.709C120.891 233.333 119.995 233.854 119.038 234.247L118.281 237.704C118.16 238.255 117.736 238.691 117.179 238.782C116.344 238.921 115.484 238.994 114.606 238.994C113.728 238.994 112.868 238.921 112.033 238.782C111.476 238.691 111.052 238.255 110.931 237.704L110.174 234.247C109.218 233.854 108.321 233.333 107.51 232.709L104.144 233.787C103.611 233.956 103.018 233.805 102.66 233.375C102.17 232.782 101.722 232.152 101.322 231.486L101.038 230.996C100.668 230.33 100.347 229.639 100.081 228.919C99.8872 228.392 100.051 227.805 100.468 227.429L103.09 225.044C103.024 224.535 102.987 224.021 102.987 223.5C102.987 222.979 103.024 222.465 103.09 221.962L100.468 219.577C100.051 219.201 99.8872 218.614 100.081 218.087C100.347 217.367 100.668 216.676 101.038 216.01L101.322 215.52C101.722 214.854 102.17 214.224 102.66 213.631C103.018 213.195 103.611 213.05 104.144 213.219L107.516 214.291C108.327 213.667 109.224 213.146 110.18 212.753L110.937 209.296C111.058 208.745 111.482 208.309 112.039 208.218C112.875 208.073 113.734 208 114.612 208C115.49 208 116.35 208.073 117.185 208.212C117.743 208.303 118.166 208.739 118.287 209.29L119.044 212.747C120.001 213.14 120.897 213.661 121.708 214.285L125.081 213.213C125.614 213.044 126.207 213.195 126.564 213.625C127.055 214.218 127.503 214.848 127.902 215.514L128.187 216.004C128.556 216.67 128.877 217.361 129.143 218.081L129.137 218.087ZM114.612 228.344C115.897 228.344 117.129 227.833 118.037 226.925C118.946 226.017 119.456 224.785 119.456 223.5C119.456 222.215 118.946 220.983 118.037 220.075C117.129 219.167 115.897 218.656 114.612 218.656C113.328 218.656 112.096 219.167 111.187 220.075C110.279 220.983 109.768 222.215 109.768 223.5C109.768 224.785 110.279 226.017 111.187 226.925C112.096 227.833 113.328 228.344 114.612 228.344Z" fill="#BCBCBC"/>
<defs>
<linearGradient id="paint0_linear_8502_8304" x1="279" y1="210.5" x2="309.446" y2="49.4576" gradientUnits="userSpaceOnUse">
<stop stop-color="#DBDBDB"/>
<stop offset="0.498548" stop-color="#F3F3F3"/>
<stop offset="1" stop-color="#F5F5F5"/>
</linearGradient>
<linearGradient id="paint1_linear_8502_8304" x1="126" y1="23.5" x2="57.6192" y2="117.42" gradientUnits="userSpaceOnUse">
<stop stop-color="#F6F6F6"/>
<stop offset="1" stop-color="#D9D9D9"/>
</linearGradient>
<linearGradient id="paint2_linear_8502_8304" x1="190.5" y1="275" x2="222" y2="321.5" gradientUnits="userSpaceOnUse">
<stop stop-color="#E7E7E7"/>
<stop offset="1" stop-color="#F5F5F5"/>
</linearGradient>
<linearGradient id="paint3_linear_8502_8304" x1="136.763" y1="161.621" x2="133.15" y2="169.932" gradientUnits="userSpaceOnUse">
<stop stop-color="#E5E5E5"/>
<stop offset="1" stop-color="#D3D3D3"/>
</linearGradient>
<linearGradient id="paint4_linear_8502_8304" x1="137.655" y1="145.881" x2="133.308" y2="155.878" gradientUnits="userSpaceOnUse">
<stop stop-color="#E5E5E5"/>
<stop offset="1" stop-color="#D3D3D3"/>
</linearGradient>
<linearGradient id="paint5_linear_8502_8304" x1="146.906" y1="144.199" x2="142.794" y2="153.656" gradientUnits="userSpaceOnUse">
<stop stop-color="#E5E5E5"/>
<stop offset="1" stop-color="#D3D3D3"/>
</linearGradient>
<linearGradient id="paint6_linear_8502_8304" x1="148.5" y1="139.5" x2="208" y2="252.5" gradientUnits="userSpaceOnUse">
<stop stop-color="#E2E2E2"/>
<stop offset="1" stop-color="#ADADAD"/>
</linearGradient>
<linearGradient id="paint7_linear_8502_8304" x1="160.83" y1="166.644" x2="196.071" y2="287.086" gradientUnits="userSpaceOnUse">
<stop stop-color="white"/>
<stop offset="1" stop-color="#EEEEEE"/>
</linearGradient>
<linearGradient id="paint8_linear_8502_8304" x1="202.744" y1="180.098" x2="160.059" y2="224.928" gradientUnits="userSpaceOnUse">
<stop stop-color="#E1E1E1"/>
<stop offset="1" stop-color="#F4F4F4"/>
</linearGradient>
</defs>
</svg>
