<svg width="25" height="24" viewBox="0 0 25 24" fill="none" xmlns="http://www.w3.org/2000/svg">
    <path fill-rule="evenodd" clip-rule="evenodd"
        d="M23 11.3763C23 16.5547 18.2986 20.7526 12.5 20.7526C11.4596 20.7541 10.4235 20.6163 9.41825 20.3427C8.65306 20.7392 6.893 21.5 3.932 21.9956C3.67081 22.0385 3.47 21.7599 3.57369 21.5107C4.03831 20.3909 4.45831 18.8988 4.58562 17.5378C2.97519 15.8903 2 13.7338 2 11.3763C2 6.1979 6.70137 2 12.5 2C18.2986 2 23 6.1979 23 11.3763ZM17.5 12C18.3284 12 19 11.3284 19 10.5C19 9.67157 18.3284 9 17.5 9C16.6716 9 16 9.67157 16 10.5C16 11.3284 16.6716 12 17.5 12ZM14 10.5C14 11.3284 13.3284 12 12.5 12C11.6716 12 11 11.3284 11 10.5C11 9.67157 11.6716 9 12.5 9C13.3284 9 14 9.67157 14 10.5ZM7.5 12C8.32843 12 9 11.3284 9 10.5C9 9.67157 8.32843 9 7.5 9C6.67157 9 6 9.67157 6 10.5C6 11.3284 6.67157 12 7.5 12Z"
        fill="black" />
</svg>
