<svg width="30" height="30" viewBox="0 0 30 30" fill="none" xmlns="http://www.w3.org/2000/svg">
    <path fill-rule="evenodd" clip-rule="evenodd"
        d="M15 30C23.2843 30 30 23.2843 30 15C30 6.71573 23.2843 0 15 0C6.71573 0 0 6.71573 0 15C0 23.2843 6.71573 30 15 30ZM21.6667 14.99C21.6667 11.438 18.8 8.33333 15.0133 8.33333C11.14 8.33333 8.33333 11.4981 8.33333 15.01C8.33333 16.1317 8.66 17.2868 9.23333 18.3417C9.34 18.5153 9.35333 18.7356 9.28 18.9426L8.83333 20.4382C8.73333 20.7987 9.04 21.0658 9.38 20.9589L10.7267 20.5583C11.0933 20.4382 11.38 20.5917 11.72 20.7987C12.6933 21.3729 13.9067 21.6667 15 21.6667C18.3067 21.6667 21.6667 19.1095 21.6667 14.99ZM17.2067 15.0167C17.2067 14.5426 17.5867 14.1621 18.06 14.1621C18.5333 14.1621 18.9133 14.5426 18.9133 15.0167C18.9133 15.4841 18.5333 15.8713 18.06 15.8713C17.5867 15.8713 17.2067 15.4841 17.2067 15.0167ZM14.1333 15.01C14.1333 14.5426 14.52 14.1554 14.9867 14.1621C15.46 14.1621 15.84 14.5426 15.84 15.0167C15.84 15.4841 15.46 15.8713 14.9867 15.8713C14.5133 15.8646 14.1333 15.4841 14.1333 15.01ZM11.06 15.0167C11.06 14.5426 11.44 14.1621 11.9133 14.1621C12.3867 14.1621 12.7667 14.5426 12.7667 15.0167C12.7667 15.4841 12.3867 15.8646 11.9133 15.8713C11.4467 15.8713 11.06 15.4841 11.06 15.0167Z"
        fill="#FBFBFC" />
</svg>
