<svg width="25" height="24" viewBox="0 0 25 24" fill="none" xmlns="http://www.w3.org/2000/svg">
<path d="M12.5 20.7526C18.2986 20.7526 23 16.5547 23 11.3763C23 6.1979 18.2986 2 12.5 2C6.70137 2 2 6.1979 2 11.3763C2 13.7338 2.97519 15.8903 4.58562 17.5378C4.45831 18.8988 4.03831 20.3909 3.57369 21.5107C3.47 21.7599 3.67081 22.0385 3.932 21.9956C6.893 21.5 8.65306 20.7392 9.41825 20.3427C10.4235 20.6163 11.4596 20.7541 12.5 20.7526Z" fill="black"/>
<circle cx="17.5" cy="10.5" r="1.5" fill="white"/>
<circle cx="12.5" cy="10.5" r="1.5" fill="white"/>
<circle cx="7.5" cy="10.5" r="1.5" fill="white"/>
</svg>
