<svg width="18" height="21" viewBox="0 0 18 21" fill="none" xmlns="http://www.w3.org/2000/svg">
<path d="M12.3197 0H1.89864C0.856538 0 0.00390625 0.859091 0.00390625 1.90909V14.3182C0.00390625 14.8432 0.430222 15.2727 0.951275 15.2727C1.47233 15.2727 1.89864 14.8432 1.89864 14.3182V2.86364C1.89864 2.33864 2.32496 1.90909 2.84601 1.90909H12.3197C12.8407 1.90909 13.2671 1.47955 13.2671 0.954545C13.2671 0.429545 12.8407 0 12.3197 0ZM16.1092 3.81818H5.68812C4.64601 3.81818 3.79338 4.67727 3.79338 5.72727V19.0909C3.79338 20.1409 4.64601 21 5.68812 21H16.1092C17.1513 21 18.0039 20.1409 18.0039 19.0909V5.72727C18.0039 4.67727 17.1513 3.81818 16.1092 3.81818ZM15.1618 19.0909H6.63549C6.11443 19.0909 5.68812 18.6614 5.68812 18.1364V6.68182C5.68812 6.15682 6.11443 5.72727 6.63549 5.72727H15.1618C15.6829 5.72727 16.1092 6.15682 16.1092 6.68182V18.1364C16.1092 18.6614 15.6829 19.0909 15.1618 19.0909Z" fill="#111111"/>
</svg>
