<svg width="169" height="169" viewBox="0 0 169 169" fill="none" xmlns="http://www.w3.org/2000/svg">
<g clip-path="url(#clip0_8330_14117)">
<g filter="url(#filter0_d_8330_14117)">
<path d="M147.748 90.1648C149.489 77.6658 147.432 64.6395 141.103 53.6172C139.046 50.0309 136.621 46.7084 133.773 43.7551C130.556 40.3798 126.917 37.4265 123.436 34.3149C133.034 42.8058 139.046 54.7774 140.734 67.4346C142.474 80.1445 139.943 93.54 134.036 104.931C128.182 116.27 119.533 125.921 108.722 132.725C98.0161 139.475 85.5171 143.219 72.8072 142.903C61.2575 142.534 49.9188 138.684 40.8478 131.459C40.1622 130.931 39.4766 130.351 38.8438 129.771C43.432 133.832 47.862 138.157 53.0831 141.374C57.8823 144.327 63.2088 146.437 68.6936 147.755C80.8762 150.603 93.797 149.179 105.294 144.432C116.791 139.686 126.917 131.775 134.406 121.86C141.525 112.579 146.166 101.609 147.748 90.1648Z" fill="url(#paint0_linear_8330_14117)"/>
<path opacity="0.5" d="M105.446 144.379C109.454 142.745 113.304 140.688 116.943 138.262L112.565 133.621C112.038 133.99 111.511 134.306 110.983 134.676C100.066 141.584 87.3037 145.381 74.3301 145.012C65.1536 144.749 56.0826 142.27 48.1719 137.682C49.8068 138.947 51.4944 140.213 53.2875 141.268C58.0867 144.221 63.4132 146.331 68.898 147.649C81.0278 150.497 93.896 149.126 105.446 144.379Z" fill="url(#paint1_linear_8330_14117)" fill-opacity="0.5"/>
<path d="M93.7994 21.4466C126.233 24.8746 146.907 54.7245 139.998 88.2133C133.037 121.649 101.13 146.014 68.6432 142.586C36.2092 139.158 15.5358 109.309 22.4973 75.8198C29.406 42.3837 61.3654 18.0187 93.7994 21.4466Z" fill="url(#paint2_linear_8330_14117)"/>
<path opacity="0.2" d="M93.3743 22.8706C62.0478 19.5481 31.2486 43.0694 24.4981 75.3452C23.9707 77.8239 23.6016 80.3026 23.3906 82.7285C36.5225 92.2214 52.3967 98.4446 70.2222 100.29C94.0072 102.769 117.634 97.1261 138.255 85.4709C143.95 53.9334 124.121 26.0876 93.3743 22.8706Z" fill="url(#paint3_linear_8330_14117)"/>
<path opacity="0.5" d="M73.605 139.739C44.6517 136.68 23.6091 111.471 30.0959 80.197C36.5827 48.9232 66.4853 26.1403 96.8098 29.3046C122.282 31.9942 137.207 53.4587 138.315 77.1909C139.581 48.9759 120.542 25.3492 92.3271 22.3958C60.9478 19.0733 29.9904 42.6473 23.2927 75.0286C16.5422 107.41 36.5827 136.363 68.0147 139.686C70.8626 140.002 73.7104 140.055 76.5583 139.949C75.5563 139.897 74.5543 139.844 73.605 139.739Z" fill="#94512A"/>
<path d="M89.1093 27.9861C90.9552 27.9861 92.801 28.0916 94.5941 28.2498C108.148 29.6737 119.856 36.3188 127.608 46.9191C131.616 52.4567 134.412 58.7325 135.835 65.6412C137.312 72.8664 137.259 80.3552 135.677 88.0023C132.829 101.767 125.13 114.477 114.002 123.759C102.98 132.935 89.584 137.998 76.2412 137.998C74.3954 137.998 72.5495 137.893 70.7564 137.734C57.2027 136.311 45.4948 129.665 37.7423 119.065C33.7342 113.475 30.9918 107.199 29.5678 100.29C28.0912 93.0651 28.1439 85.5763 29.7261 77.9292C32.5739 64.1646 40.2737 51.4546 51.4015 42.1727C62.371 32.9962 75.7666 27.9861 89.1093 27.9861ZM89.1093 22.765C59.154 22.765 30.9918 45.8644 24.5577 76.8745C17.7017 109.941 38.1642 136.891 70.229 140.266C72.2331 140.477 74.2372 140.582 76.2412 140.582C106.197 140.582 131.933 118.38 138.367 87.3694C145.223 54.3025 127.186 26.4567 95.1215 23.0814C93.1175 22.8178 91.1134 22.765 89.1093 22.765Z" fill="#E99855"/>
<path d="M87.7344 26.4043C89.5802 26.4043 91.426 26.5098 93.2719 26.668C106.984 28.0919 118.797 34.7897 126.655 45.5483C130.716 51.1386 133.511 57.5199 134.988 64.4814C136.517 71.7592 136.465 79.3535 134.83 87.1061C131.929 101.029 124.177 113.844 112.891 123.232C101.763 132.514 88.209 137.629 74.7608 137.629C72.9149 137.629 71.0691 137.524 69.2232 137.366C55.564 135.942 43.6979 129.244 35.8399 118.485C31.7791 112.895 28.9839 106.514 27.5073 99.5523C25.9779 92.2744 26.0306 84.6801 27.6655 76.9276C30.5661 63.0047 38.3714 50.1893 49.6046 40.8019C60.6796 31.5199 74.2334 26.4043 87.7344 26.4043ZM87.7344 21.1305C57.4626 21.1305 28.9839 44.4935 22.4971 75.8201C15.5357 109.256 36.2091 139.159 68.6959 142.587C70.7526 142.798 72.7567 142.903 74.8135 142.903C105.085 142.903 133.564 119.54 140.051 88.2136C147.012 54.7775 126.339 24.8749 93.852 21.4469C91.7952 21.236 89.7384 21.1305 87.7344 21.1305Z" fill="url(#paint4_linear_8330_14117)"/>
<path opacity="0.7" d="M93.6401 21.448C91.5833 21.2371 89.5793 21.1316 87.5225 21.1316C57.2507 21.1316 28.7721 44.4946 22.2852 75.8212C21.7051 78.6691 21.336 81.4642 21.125 84.2066C22.8126 85.3668 24.5003 86.4743 26.2406 87.5818C26.2934 84.0484 26.7153 80.5149 27.4536 76.9287C30.3542 63.0058 38.1067 50.1904 49.3927 40.803C60.5205 31.521 74.0742 26.4054 87.5225 26.4054C89.3683 26.4054 91.2142 26.5109 93.06 26.6691C106.772 28.093 118.585 34.7908 126.443 45.5494C130.504 51.1397 133.299 57.521 134.776 64.4825C136.305 71.7603 136.253 79.3546 134.618 87.1072C134.512 87.74 134.354 88.3729 134.196 89.0058C136.253 87.951 138.257 86.8435 140.261 85.736C145.746 53.3019 125.283 24.7705 93.6401 21.448Z" fill="url(#paint5_linear_8330_14117)"/>
</g>
<g filter="url(#filter1_d_8330_14117)">
<path d="M107.719 71.7928C109.399 79.5672 106.59 87.0241 101.712 92.3651C98.4823 95.9947 94.753 99.028 90.9904 101.629C87.5033 104.278 79.7767 109.434 77.8687 109.407C76.2288 108.92 74.5427 106.84 73.3131 105.734C66.424 99.3148 59.0877 91.6132 55.774 83.6653C53.0878 76.0849 53.9809 67.1323 59.8507 62.1171C67.3629 56.5992 77.6258 58.856 82.2423 65.8731C83.8415 64.1798 85.7264 62.9111 87.8968 62.067C96.6031 59.5667 104.969 63.8462 107.719 71.7928Z" fill="url(#paint6_linear_8330_14117)"/>
<path d="M101.446 92.1215L101.443 92.125C98.2373 95.7268 94.5322 98.7416 90.7851 101.332L90.7785 101.337L90.7721 101.342C89.0376 102.659 86.2435 104.604 83.647 106.215C82.3485 107.02 81.1055 107.738 80.0727 108.252C79.556 108.509 79.0979 108.712 78.7155 108.849C78.3579 108.977 78.0941 109.038 77.9207 109.045C77.2016 108.815 76.4406 108.236 75.6818 107.537C75.2983 107.184 74.9264 106.81 74.5689 106.451L74.5627 106.445C74.2112 106.092 73.8708 105.75 73.557 105.468C66.6707 99.0509 59.3932 91.3999 56.1111 83.5355C53.4595 76.0434 54.3716 67.2829 60.0752 62.4003C67.4173 57.0166 77.4383 59.2279 81.9406 66.0715L82.1914 66.4528L82.5048 66.121C84.0635 64.4707 85.8983 63.2342 88.0124 62.4095C96.5324 59.9708 104.682 64.1542 107.37 71.8904C109.012 79.5219 106.256 86.8547 101.446 92.1215Z" stroke="#94512A" stroke-width="0.722222"/>
</g>
<g filter="url(#filter2_d_8330_14117)">
<path d="M107.719 71.7928C109.399 79.5672 106.59 87.0241 101.712 92.3651C98.4823 95.9947 94.753 99.028 90.9904 101.629C87.5033 104.278 79.7767 109.434 77.8687 109.407C76.2288 108.92 74.5427 106.84 73.3131 105.734C66.424 99.3148 59.0877 91.6132 55.774 83.6653C53.0878 76.0849 53.9809 67.1323 59.8507 62.1171C67.3629 56.5992 77.6258 58.856 82.2423 65.8731C83.8415 64.1798 85.7264 62.9111 87.8968 62.067C96.6031 59.5667 104.969 63.8462 107.719 71.7928Z" fill="url(#paint7_linear_8330_14117)" fill-opacity="0.43" shape-rendering="crispEdges"/>
<path d="M101.179 91.878L101.179 91.878L101.173 91.885C97.9924 95.4588 94.3115 98.4553 90.5797 101.035L90.5665 101.045L90.5537 101.054C88.8283 102.364 86.0436 104.303 83.4567 105.908C82.1625 106.711 80.9303 107.422 79.9118 107.929C79.402 108.183 78.9578 108.379 78.5936 108.509C78.295 108.616 78.0901 108.664 77.9652 108.679C77.3452 108.462 76.6566 107.944 75.9265 107.272C75.5496 106.924 75.1832 106.556 74.8248 106.197L74.8141 106.186C74.4669 105.837 74.1215 105.49 73.801 105.201C66.9174 98.787 59.6987 91.1867 56.4482 83.4056C53.8313 76.0021 54.7621 67.4336 60.2997 62.6835C67.4717 57.4341 77.2507 59.5999 81.6389 66.27L82.1406 67.0326L82.7673 66.369C84.2855 64.7615 86.0702 63.5573 88.1279 62.7521C96.4616 60.3749 104.394 64.4621 107.022 71.988C108.625 79.4767 105.921 86.6854 101.179 91.878Z" stroke="#F4B447" stroke-width="1.44444" shape-rendering="crispEdges"/>
</g>
<path d="M56.1088 63.4143L50.7031 63.9055L56.0614 65.4496L56.9624 66.9936L57.2943 75.205L58.3375 67.1339L59.3333 65.8005L64.7865 65.3092L59.4282 63.7652L58.5272 62.2212L58.1478 54.08L57.1521 62.0808L56.1088 63.4143Z" fill="white"/>
</g>
<defs>
<filter id="filter0_d_8330_14117" x="21.125" y="21.125" width="138.219" height="140.091" filterUnits="userSpaceOnUse" color-interpolation-filters="sRGB">
<feFlood flood-opacity="0" result="BackgroundImageFix"/>
<feColorMatrix in="SourceAlpha" type="matrix" values="0 0 0 0 0 0 0 0 0 0 0 0 0 0 0 0 0 0 127 0" result="hardAlpha"/>
<feOffset dx="7" dy="8"/>
<feGaussianBlur stdDeviation="2"/>
<feComposite in2="hardAlpha" operator="out"/>
<feColorMatrix type="matrix" values="0 0 0 0 0 0 0 0 0 0 0 0 0 0 0 0 0 0 0.1 0"/>
<feBlend mode="normal" in2="BackgroundImageFix" result="effect1_dropShadow_8330_14117"/>
<feBlend mode="normal" in="SourceGraphic" in2="effect1_dropShadow_8330_14117" result="shape"/>
</filter>
<filter id="filter1_d_8330_14117" x="54.3281" y="59.0291" width="55.3273" height="51.8226" filterUnits="userSpaceOnUse" color-interpolation-filters="sRGB">
<feFlood flood-opacity="0" result="BackgroundImageFix"/>
<feColorMatrix in="SourceAlpha" type="matrix" values="0 0 0 0 0 0 0 0 0 0 0 0 0 0 0 0 0 0 127 0" result="hardAlpha"/>
<feOffset dx="1.44444" dy="1.44444"/>
<feComposite in2="hardAlpha" operator="out"/>
<feColorMatrix type="matrix" values="0 0 0 0 0.580392 0 0 0 0 0.317647 0 0 0 0 0.164706 0 0 0 1 0"/>
<feBlend mode="normal" in2="BackgroundImageFix" result="effect1_dropShadow_8330_14117"/>
<feBlend mode="normal" in="SourceGraphic" in2="effect1_dropShadow_8330_14117" result="shape"/>
</filter>
<filter id="filter2_d_8330_14117" x="54.3281" y="59.0291" width="56.7717" height="51.8226" filterUnits="userSpaceOnUse" color-interpolation-filters="sRGB">
<feFlood flood-opacity="0" result="BackgroundImageFix"/>
<feColorMatrix in="SourceAlpha" type="matrix" values="0 0 0 0 0 0 0 0 0 0 0 0 0 0 0 0 0 0 127 0" result="hardAlpha"/>
<feOffset dx="2.88889" dy="1.44444"/>
<feComposite in2="hardAlpha" operator="out"/>
<feColorMatrix type="matrix" values="0 0 0 0 0.580392 0 0 0 0 0.317647 0 0 0 0 0.164706 0 0 0 1 0"/>
<feBlend mode="normal" in2="BackgroundImageFix" result="effect1_dropShadow_8330_14117"/>
<feBlend mode="normal" in="SourceGraphic" in2="effect1_dropShadow_8330_14117" result="shape"/>
</filter>
<linearGradient id="paint0_linear_8330_14117" x1="160.199" y1="-25.7379" x2="54.1186" y2="195.394" gradientUnits="userSpaceOnUse">
<stop stop-color="#FFD243"/>
<stop offset="1" stop-color="#CD571B"/>
</linearGradient>
<linearGradient id="paint1_linear_8330_14117" x1="97.6619" y1="106.44" x2="70.2564" y2="163.569" gradientUnits="userSpaceOnUse">
<stop stop-color="#E08C3C"/>
<stop offset="1" stop-color="#FFD06F"/>
</linearGradient>
<linearGradient id="paint2_linear_8330_14117" x1="48.1922" y1="247.597" x2="121.019" y2="-117.332" gradientUnits="userSpaceOnUse">
<stop stop-color="#F5942A"/>
<stop offset="1" stop-color="#F5D85D"/>
</linearGradient>
<linearGradient id="paint3_linear_8330_14117" x1="63.4161" y1="170.573" x2="111.02" y2="-67.9669" gradientUnits="userSpaceOnUse">
<stop stop-color="#E08C3C"/>
<stop offset="1" stop-color="#FFD06F"/>
</linearGradient>
<linearGradient id="paint4_linear_8330_14117" x1="105.072" y1="-11.9615" x2="42.7416" y2="233.797" gradientUnits="userSpaceOnUse">
<stop offset="0.199" stop-color="#FFDE43"/>
<stop offset="0.5646" stop-color="#FFD23E"/>
<stop offset="1" stop-color="#FFBD37"/>
</linearGradient>
<linearGradient id="paint5_linear_8330_14117" x1="101.827" y1="-0.297814" x2="61.2396" y2="159.733" gradientUnits="userSpaceOnUse">
<stop offset="0.0180995" stop-color="#FFFFA0"/>
<stop offset="0.9762" stop-color="#FFEB6A"/>
</linearGradient>
<linearGradient id="paint6_linear_8330_14117" x1="69.1378" y1="60.1207" x2="90.4828" y2="106.181" gradientUnits="userSpaceOnUse">
<stop stop-color="#FFCC5F"/>
<stop offset="1" stop-color="#FFD857"/>
</linearGradient>
<linearGradient id="paint7_linear_8330_14117" x1="61.3906" y1="58.5" x2="98.224" y2="100.389" gradientUnits="userSpaceOnUse">
<stop stop-color="white"/>
<stop offset="0.23" stop-color="#FFD857"/>
<stop offset="0.455" stop-color="white"/>
<stop offset="0.65" stop-color="#FFD857"/>
<stop offset="0.84" stop-color="white"/>
<stop offset="1" stop-color="#FFD857"/>
</linearGradient>
<clipPath id="clip0_8330_14117">
<rect width="169" height="169" fill="white"/>
</clipPath>
</defs>
</svg>
