<svg width="24" height="24" viewBox="0 0 24 24" fill="none" xmlns="http://www.w3.org/2000/svg">
<path d="M8.33333 17.5C8.33333 17.2569 8.42991 17.0237 8.60182 16.8518C8.77373 16.6799 9.00688 16.5833 9.25 16.5833H14.75C14.9931 16.5833 15.2263 16.6799 15.3982 16.8518C15.5701 17.0237 15.6667 17.2569 15.6667 17.5C15.6667 17.7431 15.5701 17.9763 15.3982 18.1482C15.2263 18.3201 14.9931 18.4166 14.75 18.4166H9.25C9.00688 18.4166 8.77373 18.3201 8.60182 18.1482C8.42991 17.9763 8.33333 17.7431 8.33333 17.5ZM4.66667 12C4.66667 11.7569 4.76324 11.5237 4.93515 11.3518C5.10706 11.1799 5.34022 11.0833 5.58333 11.0833H18.4167C18.6598 11.0833 18.8929 11.1799 19.0648 11.3518C19.2368 11.5237 19.3333 11.7569 19.3333 12C19.3333 12.2431 19.2368 12.4763 19.0648 12.6482C18.8929 12.8201 18.6598 12.9166 18.4167 12.9166H5.58333C5.34022 12.9166 5.10706 12.8201 4.93515 12.6482C4.76324 12.4763 4.66667 12.2431 4.66667 12ZM1 6.49998C1 6.25686 1.09658 6.02371 1.26849 5.8518C1.44039 5.67989 1.67355 5.58331 1.91667 5.58331H22.0833C22.3264 5.58331 22.5596 5.67989 22.7315 5.8518C22.9034 6.02371 23 6.25686 23 6.49998C23 6.74309 22.9034 6.97625 22.7315 7.14816C22.5596 7.32007 22.3264 7.41665 22.0833 7.41665H1.91667C1.67355 7.41665 1.44039 7.32007 1.26849 7.14816C1.09658 6.97625 1 6.74309 1 6.49998Z" fill="#111111"/>
</svg>
