<svg width="28" height="28" viewBox="0 0 28 28" fill="none" xmlns="http://www.w3.org/2000/svg">
<path d="M24.2803 16.4697L22.0303 14.2197C21.8896 14.0791 21.6989 14.0002 21.5 14.0002C21.3011 14.0002 21.1104 14.0791 20.9697 14.2197L14 21.1895V24.5H17.3105L24.2803 17.5303C24.4209 17.3896 24.4998 17.1989 24.4998 17C24.4998 16.8011 24.4209 16.6104 24.2803 16.4697ZM16.6895 23H15.5V21.8105L19.25 18.0605L20.4395 19.25L16.6895 23ZM21.5 18.1895L20.3105 17L21.5 15.8105L22.6895 17L21.5 18.1895Z" fill="#4D4D4D" stroke="#4D4D4D" stroke-width="0.3"/>
<path d="M8 14H15.5V15.5H8V14Z" fill="#4D4D4D" stroke="#4D4D4D" stroke-width="0.3"/>
<path d="M8 9.5H17V11H8V9.5Z" fill="#4D4D4D" stroke="#4D4D4D" stroke-width="0.3"/>
<path d="M21.5 5C21.4996 4.6023 21.3414 4.221 21.0602 3.93978C20.779 3.65856 20.3977 3.5004 20 3.5H5.00001C4.6023 3.5004 4.221 3.65856 3.93978 3.93978C3.65856 4.221 3.5004 4.6023 3.50001 5V14.75C3.49833 16.2458 3.90404 17.7137 4.67359 18.9964C5.44313 20.279 6.54745 21.3278 7.868 22.0303L11.75 24.1003V22.4L8.5745 20.7065C7.49402 20.1318 6.59042 19.2737 5.96069 18.2243C5.33095 17.1749 4.99884 15.9738 5.00001 14.75V5H20V11.75H21.5V5Z" fill="#4D4D4D" stroke="#4D4D4D" stroke-width="0.3"/>
</svg>
