<svg width="28" height="28" viewBox="0 0 28 28" fill="none" xmlns="http://www.w3.org/2000/svg">
<path d="M24.77 16.5872L22.4128 14.23C22.2654 14.0827 22.0656 14 21.8573 14C21.6489 14 21.4491 14.0827 21.3018 14.23L14 21.5318V25H17.4682L24.77 17.6982C24.9173 17.5509 25 17.3511 25 17.1427C25 16.9344 24.9173 16.7346 24.77 16.5872ZM16.8176 23.4285H15.5715V22.1824L19.5001 18.2538L20.7462 19.4999L16.8176 23.4285ZM21.8573 18.3889L20.6111 17.1427L14.5587 22.6603L16.3746 24.4762L21.8573 18.3889Z" fill="#ECA533"/>
<path fill-rule="evenodd" clip-rule="evenodd" d="M15.3965 23.4874H16.6426L20.5712 19.5588L19.3251 18.3127L15.3965 22.2413V23.4874ZM20.4361 17.2017L21.6822 18.4478L22.9283 17.2017L21.6822 15.9556L20.4361 17.2017Z" fill="white"/>
<path fill-rule="evenodd" clip-rule="evenodd" d="M21.3964 3.46072C21.691 3.75533 21.8567 4.15479 21.8571 4.57143V11.346L11.6429 21.0259V24.5812L7.576 22.4126C6.19257 21.6767 5.03566 20.578 4.22947 19.2343C3.42328 17.8906 2.99825 16.3527 3.00001 14.7857V4.57143C3.00042 4.15479 3.16612 3.75533 3.46073 3.46072C3.75534 3.16611 4.15479 3.00042 4.57143 3H20.2857C20.7024 3.00042 21.1018 3.16611 21.3964 3.46072ZM7.82992 12.2889H7.57423V13.8603H8.49341H15.4314V12.2889H7.82992ZM7.57423 7.57459H17.0028V9.14602H7.57423V7.57459Z" fill="#ECA533"/>
</svg>
