<svg width="24" height="24" viewBox="0 0 24 24" fill="none" xmlns="http://www.w3.org/2000/svg">
<path d="M19.3051 19.5374C19.0579 20.556 16.1895 21.4323 12.9016 21.4997C9.61373 21.5671 7.15718 20.7957 7.40433 19.7846C7.65149 18.766 10.52 17.8898 13.8078 17.8223C17.0882 17.7475 19.5522 18.5189 19.3051 19.5374Z" fill="#E0BFAD"/>
<path d="M20.9818 12.8044C21.229 11.0294 20.9369 9.17955 20.0382 7.61425C19.7461 7.10497 19.4016 6.63313 18.9971 6.21372C18.5403 5.7344 18.0235 5.31499 17.5292 4.87311C18.8923 6.07891 19.7461 7.77902 19.9857 9.57649C20.2329 11.3814 19.8734 13.2838 19.0346 14.9015C18.2033 16.5117 16.975 17.8823 15.4396 18.8484C13.9193 19.8071 12.1443 20.3388 10.3393 20.2939C8.69913 20.2415 7.0889 19.6947 5.80071 18.6687C5.70335 18.5938 5.60599 18.5114 5.51611 18.429C6.1677 19.0057 6.79681 19.6199 7.53827 20.0767C8.21981 20.4961 8.97624 20.7957 9.75515 20.9829C11.4852 21.3874 13.3201 21.1852 14.9528 20.5111C16.5855 19.837 18.0235 18.7136 19.087 17.3056C20.0981 15.9875 20.7572 14.4297 20.9818 12.8044Z" fill="url(#paint0_linear_339_2311)"/>
<path opacity="0.5" d="M14.9753 20.5036C15.5445 20.2714 16.0913 19.9794 16.6081 19.6348L15.9864 18.9758C15.9115 19.0282 15.8366 19.0731 15.7617 19.1256C14.2114 20.1067 12.399 20.6459 10.5566 20.5935C9.2534 20.556 7.96522 20.204 6.8418 19.5525C7.07397 19.7322 7.31363 19.912 7.56827 20.0617C8.24982 20.4812 9.00625 20.7807 9.78515 20.968C11.5077 21.3724 13.3352 21.1777 14.9753 20.5036Z" fill="url(#paint1_linear_339_2311)" fill-opacity="0.5"/>
<path d="M13.3202 3.04568C17.9262 3.53249 20.8621 7.77153 19.881 12.5273C18.8924 17.2756 14.3613 20.7358 9.74775 20.249C5.14174 19.7621 2.20587 15.5231 3.19448 10.7673C4.1756 6.01899 8.71421 2.55886 13.3202 3.04568Z" fill="url(#paint2_linear_339_2311)"/>
<path opacity="0.2" d="M13.2603 3.24786C8.81155 2.77602 4.43771 6.11632 3.47906 10.6999C3.40416 11.0519 3.35174 11.4039 3.32178 11.7484C5.18665 13.0965 7.44098 13.9803 9.97242 14.2424C13.3502 14.5944 16.7054 13.793 19.6338 12.1378C20.4427 7.65915 17.6266 3.70472 13.2603 3.24786Z" fill="url(#paint3_linear_339_2311)"/>
<path opacity="0.5" d="M10.4518 19.8446C6.34012 19.4102 3.35182 15.8302 4.27303 11.389C5.19423 6.94771 9.44075 3.71226 13.7472 4.16163C17.3646 4.54359 19.4841 7.5918 19.6414 10.9621C19.8211 6.9552 17.1174 3.59992 13.1106 3.18051C8.65436 2.70867 4.25805 6.05646 3.30689 10.655C2.34823 15.2535 5.19423 19.3652 9.65795 19.8371C10.0624 19.882 10.4668 19.8895 10.8712 19.8745C10.7289 19.867 10.5866 19.8595 10.4518 19.8446Z" fill="#94512A"/>
<path d="M12.6539 3.97437C12.916 3.97437 13.1781 3.98935 13.4328 4.01181C15.3575 4.21403 17.0202 5.1577 18.1212 6.66308C18.6904 7.44948 19.0873 8.34072 19.2895 9.32184C19.4992 10.3479 19.4917 11.4114 19.267 12.4974C18.8626 14.4521 17.7692 16.2571 16.1889 17.5752C14.6236 18.8784 12.7213 19.5974 10.8264 19.5974C10.5643 19.5974 10.3022 19.5824 10.0475 19.5599C8.12273 19.3577 6.46007 18.414 5.35912 16.9087C4.78992 16.1148 4.40047 15.2235 4.19825 14.2424C3.98855 13.2164 3.99604 12.1529 4.22072 11.0669C4.62515 9.11214 5.71861 7.30718 7.29889 5.98903C8.8567 4.68587 10.759 3.97437 12.6539 3.97437ZM12.6539 3.23291C8.39984 3.23291 4.40047 6.51329 3.48676 10.9171C2.51313 15.613 5.41904 19.4401 9.97263 19.9194C10.2572 19.9494 10.5418 19.9644 10.8264 19.9644C15.0804 19.9644 18.7353 16.8113 19.649 12.4075C20.6226 7.71161 18.0612 3.75717 13.5077 3.27785C13.2231 3.2404 12.9385 3.23291 12.6539 3.23291Z" fill="#E99855"/>
<path d="M12.4589 3.74974C12.7211 3.74974 12.9832 3.76472 13.2453 3.78719C15.1926 3.9894 16.8702 4.94056 17.9861 6.46841C18.5628 7.2623 18.9598 8.16852 19.1695 9.15713C19.3867 10.1907 19.3792 11.2692 19.147 12.3701C18.7351 14.3473 17.6341 16.1673 16.0314 17.5004C14.4511 18.8185 12.5263 19.545 10.6165 19.545C10.3544 19.545 10.0923 19.53 9.83012 19.5076C7.89035 19.3053 6.20522 18.3542 5.08929 16.8263C4.51261 16.0325 4.11566 15.1262 3.90596 14.1376C3.68876 13.1041 3.69625 12.0256 3.92843 10.9246C4.34035 8.94742 5.44879 7.12749 7.04404 5.79436C8.61683 4.47622 10.5416 3.74974 12.4589 3.74974ZM12.4589 3.00079C8.15997 3.00079 4.11566 6.31862 3.19446 10.7674C2.20585 15.5157 5.14172 19.7622 9.75523 20.249C10.0473 20.279 10.3319 20.294 10.624 20.294C14.923 20.294 18.9673 16.9761 19.8885 12.5274C20.8771 7.77907 17.9412 3.53255 13.3277 3.04573C13.0356 3.01577 12.7435 3.00079 12.4589 3.00079Z" fill="url(#paint4_linear_339_2311)"/>
<path opacity="0.7" d="M13.298 3.04591C13.0059 3.01596 12.7213 3.00098 12.4292 3.00098C8.13028 3.00098 4.08597 6.31881 3.16477 10.7675C3.08238 11.172 3.02996 11.5689 3 11.9584C3.23966 12.1231 3.47933 12.2804 3.72648 12.4377C3.73397 11.9359 3.79388 11.4341 3.89874 10.9248C4.31066 8.94761 5.41161 7.12767 7.01435 5.79454C8.59463 4.4764 10.5194 3.74992 12.4292 3.74992C12.6914 3.74992 12.9535 3.7649 13.2156 3.78737C15.1629 3.98959 16.8405 4.94075 17.9564 6.4686C18.5331 7.26248 18.9301 8.1687 19.1398 9.15731C19.357 10.1909 19.3495 11.2693 19.1173 12.3703C19.1023 12.4602 19.0799 12.55 19.0574 12.6399C19.3495 12.4901 19.6341 12.3328 19.9187 12.1756C20.6976 7.56955 17.7917 3.51775 13.298 3.04591Z" fill="url(#paint5_linear_339_2311)"/>
<path d="M13.1116 8.61032L11.9807 6.67804L10.8423 8.59534L11.9582 11.3515L13.1116 8.61032Z" fill="#94512A"/>
<path d="M15.2459 10.3779L15.8375 8.22089L13.6656 8.75264L12.4897 11.4788L15.2459 10.3779Z" fill="#94512A"/>
<path d="M12.7144 12.003L15.463 13.1264L17.3878 11.988L15.463 10.8646L12.7144 12.003Z" fill="#94512A"/>
<path d="M11.4264 11.4863L10.303 8.73764L8.146 8.16095L8.69273 10.3329L11.4264 11.4863Z" fill="#94512A"/>
<path d="M11.4645 12.5348L8.70088 13.6357L8.1167 15.7927L10.2812 15.261L10.6257 14.4746L11.4645 12.5348Z" fill="#94512A"/>
<path d="M11.2167 11.9955L8.46808 10.8721L6.55078 12.0105L8.47557 13.1414L11.2167 11.9955Z" fill="#94512A"/>
<path d="M15.2385 13.7481L15.1936 13.5758L12.46 12.4224L13.5834 15.1711L15.7403 15.7403L15.2385 13.7481Z" fill="#94512A"/>
<path d="M12.6925 14.4296L11.9585 12.6621L10.8276 15.4107L11.966 17.3355L13.0969 15.4107L12.6925 14.4296Z" fill="#94512A"/>
<path d="M12.2417 12.2578L13.425 14.9839L15.5895 15.5082L15.0053 13.3587L12.2417 12.2578Z" fill="url(#paint6_linear_339_2311)"/>
<path d="M12.8186 8.43063L11.6503 6.52081L10.5493 8.46807L11.7252 11.1942L12.8186 8.43063Z" fill="url(#paint7_linear_339_2311)"/>
<path d="M14.9902 10.1532L15.5369 7.98877L13.3724 8.56546L12.249 11.3141L14.9902 10.1532Z" fill="url(#paint8_linear_339_2311)"/>
<path d="M12.4971 11.8308L15.2682 12.9018L17.163 11.726L15.2157 10.6325L12.4971 11.8308Z" fill="url(#paint9_linear_339_2311)"/>
<path d="M11.1935 11.344L10.0176 8.61781L7.8457 8.08606L8.43737 10.243L11.1935 11.344Z" fill="url(#paint10_linear_339_2311)"/>
<path d="M10.6763 15.276L11.8446 17.1708L12.9381 15.2236L11.7473 12.5049L10.6763 15.276Z" fill="url(#paint11_linear_339_2311)"/>
<path d="M8.51255 13.5459L7.96582 15.7104L10.1228 15.1412L11.2462 12.3851L8.51255 13.5459Z" fill="url(#paint12_linear_339_2311)"/>
<path d="M10.9986 11.8608L8.22003 10.7898L6.3252 11.9656L8.27245 13.0516L10.9986 11.8608Z" fill="url(#paint13_linear_339_2311)"/>
<path d="M13 13.4516L13.253 14.3456L15 15L14.6446 13C14.1205 13.2765 13.6084 13.3594 13 13.4516Z" fill="url(#paint14_linear_339_2311)"/>
<path d="M8.51662 14L8 15L10.6103 14.6652L11 14.1982C10.1299 14.1718 9.29607 14.1057 8.51662 14Z" fill="url(#paint15_linear_339_2311)"/>
<path d="M11.5083 14.108C11.4422 14.108 11.3762 14.108 11.3102 14.108L11 15.0411L12.0363 17L13 14.9949L12.6238 14C12.2607 14.0617 11.8911 14.1003 11.5083 14.108Z" fill="url(#paint16_linear_339_2311)"/>
<path d="M7.76768 8.32558L7 8.39535L7.76094 8.61462L7.88889 8.83389L7.93603 10L8.08418 8.85382L8.22559 8.66445L9 8.59468L8.23906 8.37542L8.11111 8.15615L8.05724 7L7.91582 8.13621L7.76768 8.32558Z" fill="white"/>
<defs>
<linearGradient id="paint0_linear_339_2311" x1="22.75" y1="-3.6551" x2="7.68532" y2="27.7483" gradientUnits="userSpaceOnUse">
<stop stop-color="#FFD243"/>
<stop offset="1" stop-color="#CD571B"/>
</linearGradient>
<linearGradient id="paint1_linear_339_2311" x1="13.87" y1="15.1158" x2="9.97805" y2="23.2288" gradientUnits="userSpaceOnUse">
<stop stop-color="#E08C3C"/>
<stop offset="1" stop-color="#FFD06F"/>
</linearGradient>
<linearGradient id="paint2_linear_339_2311" x1="6.84346" y1="35.1617" x2="17.1858" y2="-16.6625" gradientUnits="userSpaceOnUse">
<stop stop-color="#F5942A"/>
<stop offset="1" stop-color="#F5D85D"/>
</linearGradient>
<linearGradient id="paint3_linear_339_2311" x1="9.00586" y1="24.2233" x2="15.7662" y2="-9.65214" gradientUnits="userSpaceOnUse">
<stop stop-color="#E08C3C"/>
<stop offset="1" stop-color="#FFD06F"/>
</linearGradient>
<linearGradient id="paint4_linear_339_2311" x1="14.921" y1="-1.69866" x2="6.06942" y2="33.2019" gradientUnits="userSpaceOnUse">
<stop offset="0.199" stop-color="#FFDE43"/>
<stop offset="0.5646" stop-color="#FFD23E"/>
<stop offset="1" stop-color="#FFBD37"/>
</linearGradient>
<linearGradient id="paint5_linear_339_2311" x1="14.4607" y1="-0.0422527" x2="8.69674" y2="22.6841" gradientUnits="userSpaceOnUse">
<stop offset="0.0180995" stop-color="#FFFFA0"/>
<stop offset="0.9762" stop-color="#FFEB6A"/>
</linearGradient>
<linearGradient id="paint6_linear_339_2311" x1="12.2778" y1="13.9167" x2="15.5581" y2="13.8505" gradientUnits="userSpaceOnUse">
<stop offset="0.0180995" stop-color="#FFFFA0"/>
<stop offset="0.9762" stop-color="#FFEB6A"/>
</linearGradient>
<linearGradient id="paint7_linear_339_2311" x1="10.5577" y1="8.88219" x2="12.8246" y2="8.83644" gradientUnits="userSpaceOnUse">
<stop offset="0.0180995" stop-color="#FFFFA0"/>
<stop offset="0.9762" stop-color="#FFEB6A"/>
</linearGradient>
<linearGradient id="paint8_linear_339_2311" x1="12.2195" y1="9.68556" x2="15.5664" y2="9.61801" gradientUnits="userSpaceOnUse">
<stop offset="0.0180995" stop-color="#FFFFA0"/>
<stop offset="0.9762" stop-color="#FFEB6A"/>
</linearGradient>
<linearGradient id="paint9_linear_339_2311" x1="12.4944" y1="11.8244" x2="17.1636" y2="11.7302" gradientUnits="userSpaceOnUse">
<stop offset="0.0180995" stop-color="#FFFFA0"/>
<stop offset="0.9762" stop-color="#FFEB6A"/>
</linearGradient>
<linearGradient id="paint10_linear_339_2311" x1="7.88028" y1="9.74864" x2="11.1607" y2="9.68243" gradientUnits="userSpaceOnUse">
<stop offset="0.0180995" stop-color="#FFFFA0"/>
<stop offset="0.9762" stop-color="#FFEB6A"/>
</linearGradient>
<linearGradient id="paint11_linear_339_2311" x1="10.6654" y1="14.8606" x2="12.9322" y2="14.8148" gradientUnits="userSpaceOnUse">
<stop offset="0.0180995" stop-color="#FFFFA0"/>
<stop offset="0.9762" stop-color="#FFEB6A"/>
</linearGradient>
<linearGradient id="paint12_linear_339_2311" x1="7.93474" y1="14.0834" x2="11.2817" y2="14.0158" gradientUnits="userSpaceOnUse">
<stop offset="0.0180995" stop-color="#FFFFA0"/>
<stop offset="0.9762" stop-color="#FFEB6A"/>
</linearGradient>
<linearGradient id="paint13_linear_339_2311" x1="6.32585" y1="11.9589" x2="10.9951" y2="11.8647" gradientUnits="userSpaceOnUse">
<stop offset="0.0180995" stop-color="#FFFFA0"/>
<stop offset="0.9762" stop-color="#FFEB6A"/>
</linearGradient>
<linearGradient id="paint14_linear_339_2311" x1="13.0055" y1="14.0494" x2="14.9829" y2="14.0234" gradientUnits="userSpaceOnUse">
<stop offset="0.1642" stop-color="#FFDE43"/>
<stop offset="0.2484" stop-color="#FFDA42"/>
<stop offset="1" stop-color="#FFBD37"/>
</linearGradient>
<linearGradient id="paint15_linear_339_2311" x1="7.9732" y1="14.5025" x2="11.0046" y2="14.3766" gradientUnits="userSpaceOnUse">
<stop offset="0.1642" stop-color="#FFDE43"/>
<stop offset="0.2484" stop-color="#FFDA42"/>
<stop offset="1" stop-color="#FFBD37"/>
</linearGradient>
<linearGradient id="paint16_linear_339_2311" x1="11.0046" y1="15.5323" x2="13.0027" y2="15.4978" gradientUnits="userSpaceOnUse">
<stop offset="0.1642" stop-color="#FFDE43"/>
<stop offset="0.2484" stop-color="#FFDA42"/>
<stop offset="1" stop-color="#FFBD37"/>
</linearGradient>
</defs>
</svg>
