<svg width="33" height="32" viewBox="0 0 33 32" fill="none" xmlns="http://www.w3.org/2000/svg">
    <g clip-path="url(#clip0_400_2808)">
        <path
            d="M25.5799 12.9136L25.581 12.9145C26.0041 13.2742 26.25 13.8064 26.25 14.3721V25.9355C26.25 26.2868 26.1119 26.6221 25.8687 26.868C25.6258 27.1136 25.2982 27.25 24.9583 27.25H21.4583C21.1185 27.25 20.7908 27.1136 20.5479 26.868C20.3048 26.6221 20.1667 26.2868 20.1667 25.9355V20.037C20.1667 19.6061 19.9975 19.1912 19.6937 18.884C19.3896 18.5766 18.9753 18.4023 18.5417 18.4023H14.4583C14.0246 18.4023 13.6104 18.5766 13.3063 18.884L13.8396 19.4114L13.3063 18.884C13.0025 19.1912 12.8333 19.6061 12.8333 20.037V25.9355C12.8333 26.2868 12.6952 26.6221 12.4521 26.868C12.2092 27.1136 11.8815 27.25 11.5417 27.25H8.04167C7.87321 27.25 7.7062 27.2165 7.5501 27.1511L7.26035 27.8428L7.55009 27.1511C7.39398 27.0857 7.25159 26.9896 7.13126 26.868C7.01091 26.7463 6.91501 26.6013 6.84944 26.4413C6.78386 26.2812 6.75 26.1093 6.75 25.9355V14.371C6.75 13.8067 6.9957 13.274 7.41971 12.9128L7.42006 12.9125L15.2948 6.19552C15.6332 5.90715 16.0601 5.75 16.5 5.75C16.9398 5.75 17.3666 5.90706 17.7049 6.19526C17.7049 6.1953 17.705 6.19535 17.705 6.19539C17.7051 6.19543 17.7051 6.19548 17.7052 6.19552L25.5799 12.9136Z"
            stroke="#4D4D4D" stroke-width="1.5" />
    </g>
    <defs>
        <clipPath id="clip0_400_2808">
            <rect width="33" height="32" fill="white" />
        </clipPath>
    </defs>
</svg>
