<svg width="33" height="32" viewBox="0 0 33 32" fill="none" xmlns="http://www.w3.org/2000/svg">
<path d="M14.8083 5.62469C15.2817 5.22126 15.8809 5 16.5 5C17.1191 5 17.7183 5.22126 18.1917 5.62469L26.0667 12.3431C26.6593 12.8468 27 13.5888 27 14.3721V25.9355C27 26.4831 26.7849 27.0082 26.402 27.3953C26.0191 27.7825 25.4998 28 24.9583 28H21.4583C20.9168 28 20.3975 27.7825 20.0147 27.3953C19.6318 27.0082 19.4167 26.4831 19.4167 25.9355V20.037C19.4167 19.8024 19.3245 19.5773 19.1604 19.4114C18.9963 19.2455 18.7737 19.1523 18.5417 19.1523H14.4583C14.2263 19.1523 14.0037 19.2455 13.8396 19.4114C13.6755 19.5773 13.5833 19.8024 13.5833 20.037V25.9355C13.5833 26.4831 13.3682 27.0082 12.9853 27.3953C12.6025 27.7825 12.0831 28 11.5417 28H8.04167C7.77355 28 7.50806 27.9466 7.26035 27.8428C7.01265 27.7391 6.78758 27.587 6.59799 27.3953C6.4084 27.2036 6.25802 26.976 6.15541 26.7256C6.05281 26.4751 6 26.2066 6 25.9355V14.371C6 13.5888 6.34067 12.8468 6.93333 12.3419L14.8083 5.62469Z" fill="#203BCC"/>
</svg>
