<svg width="18" height="19" viewBox="0 0 18 19" fill="none" xmlns="http://www.w3.org/2000/svg">
<path d="M15.4499 6.85643C15.4499 6.85643 14.9765 12.728 14.7019 15.2014C14.5711 16.3827 13.8414 17.0749 12.6462 17.0967C10.3717 17.1376 8.0945 17.1403 5.82083 17.0923C4.67091 17.0688 3.95342 16.3678 3.82526 15.2075C3.5489 12.7123 3.07812 6.85643 3.07812 6.85643" stroke="#0D2C1E" stroke-width="2" stroke-linecap="round" stroke-linejoin="round"/>
<path d="M16.6552 4.04179H1.87109" stroke="#0D2C1E" stroke-width="2" stroke-linecap="round" stroke-linejoin="round"/>
<path d="M13.8056 4.04178C13.1212 4.04178 12.5319 3.55792 12.3976 2.88751L12.1858 1.82739C12.055 1.33831 11.6121 1.00005 11.1073 1.00005H7.41699C6.91221 1.00005 6.46934 1.33831 6.33857 1.82739L6.12672 2.88751C5.99246 3.55792 5.40312 4.04178 4.71875 4.04178" stroke="#0D2C1E" stroke-width="2" stroke-linecap="round" stroke-linejoin="round"/>
</svg>
