<svg width="16" height="16" viewBox="0 0 16 16" fill="none" xmlns="http://www.w3.org/2000/svg">
<path d="M11.7255 0.166672V1.60001H1.68627V11.5667H0V1.60001C0 1.20001 0.163399 0.861116 0.490196 0.583338C0.816993 0.305561 1.21569 0.166672 1.68627 0.166672H11.7255ZM14.2353 3.03334C14.6797 3.03334 15.0654 3.17223 15.3922 3.45001C15.719 3.72778 15.8824 4.05556 15.8824 4.43334V14.4C15.8824 14.8 15.719 15.1389 15.3922 15.4167C15.0654 15.6945 14.6797 15.8333 14.2353 15.8333H5.01961C4.54902 15.8333 4.15033 15.6945 3.82353 15.4167C3.49673 15.1389 3.33333 14.8 3.33333 14.4V4.43334C3.33333 4.05556 3.49673 3.72778 3.82353 3.45001C4.15033 3.17223 4.54902 3.03334 5.01961 3.03334H14.2353ZM14.2353 14.4V4.43334H5.01961V14.4H14.2353Z" fill="#0D2C1E"/>
</svg>
