<svg width="14" height="14" viewBox="0 0 14 14" fill="none" xmlns="http://www.w3.org/2000/svg">
    <path
        d="M7.01331 0.333252C10.8 0.333252 13.6666 3.43791 13.6666 6.9899C13.6666 11.1094 10.3066 13.6666 6.99998 13.6666C5.90665 13.6666 4.69331 13.3728 3.71998 12.7986C3.37998 12.5916 3.09331 12.4381 2.72665 12.5583L1.37998 12.9589C1.03998 13.0657 0.733313 12.7986 0.833313 12.4381L1.27998 10.9425C1.35331 10.7355 1.33998 10.5152 1.23331 10.3416C0.65998 9.28668 0.333313 8.13162 0.333313 7.00993C0.333313 3.498 3.13998 0.333252 7.01331 0.333252ZM10.06 6.16199C9.58665 6.16199 9.20665 6.54257 9.20665 7.01661C9.20665 7.48398 9.58665 7.87122 10.06 7.87122C10.5333 7.87122 10.9133 7.48398 10.9133 7.01661C10.9133 6.54257 10.5333 6.16199 10.06 6.16199ZM6.98665 6.16199C6.51998 6.15532 6.13331 6.54257 6.13331 7.00993C6.13331 7.48398 6.51331 7.86455 6.98665 7.87122C7.45998 7.87122 7.83998 7.48398 7.83998 7.01661C7.83998 6.54257 7.45998 6.16199 6.98665 6.16199ZM3.91331 6.16199C3.43998 6.16199 3.05998 6.54257 3.05998 7.01661C3.05998 7.48398 3.44665 7.87122 3.91331 7.87122C4.38665 7.86455 4.76665 7.48398 4.76665 7.01661C4.76665 6.54257 4.38665 6.16199 3.91331 6.16199Z"
        fill="#73889D" />
</svg>
