<svg width="25" height="24" viewBox="0 0 25 24" fill="none" xmlns="http://www.w3.org/2000/svg">
<path d="M11.8966 17.28C8.46529 17.28 5.70117 14.496 5.70117 11.04C5.70117 7.58399 8.46529 4.79999 11.8966 4.79999C15.3279 4.79999 18.092 7.58399 18.092 11.04C18.092 14.496 15.3279 17.28 11.8966 17.28ZM11.8966 5.75999C8.98951 5.75999 6.65431 8.11199 6.65431 11.04C6.65431 13.968 8.98951 16.32 11.8966 16.32C14.8037 16.32 17.1389 13.968 17.1389 11.04C17.1389 8.11199 14.8037 5.75999 11.8966 5.75999Z" fill="#111111" stroke="#111111" stroke-width="0.5"/>
<path d="M16.5108 15.0082L20.7904 19.3186L20.1165 19.9973L15.8369 15.6869L16.5108 15.0082Z" fill="#111111" stroke="#111111" stroke-width="0.5"/>
</svg>
